<svg width="400" height="402" viewBox="0 0 400 402" fill="none" xmlns="http://www.w3.org/2000/svg">
<mask id="mask0" mask-type="alpha" maskUnits="userSpaceOnUse" x="0" y="0" width="400" height="402">
<rect width="400" height="402" rx="80" fill="#603A18"/>
</mask>
<g mask="url(#mask0)">
<circle cx="19" cy="260" r="198" fill="#F1582E"/>
<path d="M197.486 82.4572C201.597 64.8676 219.412 53.6468 235.792 61.263C243.172 64.6944 250.277 68.6873 257.046 73.2062C272.069 83.2361 271.749 104.289 258.863 116.947L254.391 121.34C243.974 131.572 227.332 131.007 214.603 123.854C201.873 116.701 192.736 102.78 196.059 88.5613L197.486 82.4572Z" fill="#BBA9D1"/>
<circle cx="189" cy="261" r="99" fill="#F8C013"/>
<path d="M163.952 52.3269C178.076 44.9531 183.75 27.2696 173.647 14.9489C161.386 -0.00398121 146.098 -12.3435 128.671 -21.1909C111.244 -30.0383 92.2595 -35.0983 72.9523 -36.172C57.0438 -37.0566 46.1168 -22.0397 48.4995 -6.28575C50.8821 9.46815 65.8904 19.7909 81.5084 22.9439C88.7783 24.4115 95.8599 26.8602 102.552 30.2574C109.243 33.6546 115.399 37.9264 120.874 42.9292C132.637 53.6767 149.827 59.7006 163.952 52.3269Z" fill="white"/>
</g>
</svg>
