<svg width="49" height="72" viewBox="0 0 49 72" fill="none" xmlns="http://www.w3.org/2000/svg">
<path d="M17.0196 79.1578C-4.92641 46.3139 -9 42.9431 -9 30.8724C-9 14.3383 3.98369 0.934814 20 0.934814C36.0163 0.934814 49 14.3383 49 30.8724C49 42.9431 44.9264 46.3139 22.9804 79.1578C21.5402 81.3055 18.4597 81.3053 17.0196 79.1578ZM20 43.3464C26.6735 43.3464 32.0833 37.7617 32.0833 30.8724C32.0833 23.9832 26.6735 18.3984 20 18.3984C13.3265 18.3984 7.91667 23.9832 7.91667 30.8724C7.91667 37.7617 13.3265 43.3464 20 43.3464Z" fill="#C6431F"/>
</svg>
