<svg width="721" height="568" viewBox="0 0 721 568" fill="none" xmlns="http://www.w3.org/2000/svg">
<path d="M784.074 438.937C823.102 369.382 797.896 278.48 719.297 264.946C684.881 259.02 649.684 257.34 614.497 260.08C530.945 266.587 451.199 297.723 385.343 349.552C319.488 401.381 270.48 471.575 244.517 551.256C233.583 584.814 226.943 619.419 224.614 654.264C219.295 733.842 301.727 779.707 378.505 758.122L441.027 740.544C483.276 728.666 505.531 682.46 519.127 640.732C527.393 615.363 542.996 593.015 563.964 576.514C584.931 560.012 610.32 550.099 636.921 548.028C680.676 544.62 730.818 533.849 752.294 495.575L784.074 438.937Z" fill="#F1582E"/>
<path d="M724.67 316.2C727.212 303.324 718.84 290.756 705.842 288.94C683.757 285.854 661.464 284.517 639.169 284.94C626.047 285.189 616.232 296.667 617.217 309.754C618.201 322.842 629.613 332.574 642.737 332.418C660.753 332.204 678.762 333.284 696.624 335.651C709.635 337.374 722.129 329.076 724.67 316.2Z" fill="white"/>
</svg>
