<svg width="1440" height="78" viewBox="0 0 1440 78" fill="none" xmlns="http://www.w3.org/2000/svg">
<g clip-path="url(#clip0)">
<path fill-rule="evenodd" clip-rule="evenodd" d="M-0.00012207 -331H1440L1440 0H0C0 0 322.355 78 720 78C1117.65 78 1440 0 1440 0L1440 744H-0.00012207V-331Z" fill="#603A18"/>
<path fill-rule="evenodd" clip-rule="evenodd" d="M604.285 -141.641C583.737 -265.093 705.278 -349.421 828.384 -327.543L928.63 -309.727C996.372 -297.688 1038.21 -228.959 1065.84 -165.89C1082.64 -127.546 1110.42 -95.0505 1145.68 -72.5123C1180.93 -49.974 1222.06 -38.4054 1263.88 -39.2693C1320.98 -40.4487 1385.72 -34.3831 1428.61 0H644.366C625.728 -45.7821 612.332 -93.296 604.285 -141.641ZM682.086 77.7657C735.299 171.433 810.648 251.072 901.947 309.445C1012.67 380.236 1141.87 416.572 1273.22 413.858C1328.54 412.716 1383.19 404.669 1435.98 390.111C1556.51 356.864 1581.84 211.023 1510.25 108.418L1451.95 24.8654C1445.9 16.1909 1438.89 8.63434 1431.11 2.06226C1376.71 14.4082 1079.05 78 720 78C707.282 78 694.642 77.9202 682.086 77.7657Z" fill="#F1582E"/>
</g>
<defs>
<clipPath id="clip0">
<rect width="1440" height="78" fill="white"/>
</clipPath>
</defs>
</svg>
