<svg width="1292" height="1090" viewBox="0 0 1292 1090" fill="none" xmlns="http://www.w3.org/2000/svg">
<path d="M633.512 857.995C655.713 915.38 626.526 982.047 565.02 983.79C538.089 984.554 511.025 981.989 484.453 976.05C421.355 961.947 363.857 929.45 319.228 882.669C274.6 835.888 244.846 776.923 233.729 713.232C229.047 686.409 227.76 659.255 229.79 632.389C234.427 571.033 302.394 545.017 358.671 569.896L404.497 590.154C435.464 603.844 447.41 641.565 453.231 674.919C456.771 695.197 466.244 713.97 480.452 728.864C494.661 743.758 512.967 754.105 533.056 758.595C566.099 765.98 603.216 779.688 615.433 811.266L633.512 857.995Z" fill="#FFEFD2"/>
<path d="M777.869 934.933C785.273 965.511 819.763 988.804 852.135 980.088C891.422 969.511 926.911 951.607 956.193 927.296C985.475 902.985 1007.57 873.08 1021.33 839.62C1032.66 812.05 1007 781.43 971.857 773.879C936.717 766.327 905.712 785.242 889.694 810.6C882.238 822.404 872.794 833.14 861.55 842.475C850.307 851.809 837.509 859.54 823.549 865.515C793.561 878.353 770.464 904.355 777.869 934.933Z" fill="#603A18"/>
<path d="M369.434 403.103C332.641 413.594 293.016 391.739 295.426 353.555C296.481 336.836 299.605 320.223 304.79 304.106C317.103 265.836 340.487 232.076 371.987 207.095C403.486 182.115 441.685 167.037 481.755 163.766C498.629 162.389 515.516 163.132 532.037 165.914C569.765 172.266 582.019 215.828 563.421 249.263L548.277 276.49C538.043 294.889 514.008 300.145 493.025 301.858C480.268 302.899 468.106 307.7 458.077 315.653C448.048 323.606 440.603 334.355 436.683 346.539C430.235 366.581 419.641 388.786 399.395 394.559L369.434 403.103Z" fill="#BBA9D1"/>
<path d="M661.066 212.952C633.578 154.186 659.479 81.9559 724.052 75.6919C752.327 72.949 780.98 73.6976 809.361 78.0314C876.75 88.3221 939.574 118.365 989.889 164.361C1040.2 210.356 1075.75 270.239 1092.03 336.436C1098.89 364.315 1102.2 392.786 1102 421.193C1101.54 486.068 1031.92 518.33 970.926 496.213L921.261 478.203C887.7 466.033 872.418 427.214 863.892 392.547C858.708 371.472 847.391 352.406 831.372 337.762C815.353 323.118 795.351 313.553 773.896 310.277C738.605 304.888 698.574 293.142 683.449 260.805L661.066 212.952Z" fill="#FFEFD2"/>
<path d="M810.681 30.1913C812.703 17.2236 824.873 8.28258 837.707 11.0279C859.513 15.6923 880.916 22.0708 901.718 30.1038C913.961 34.8318 919.251 48.9762 913.845 60.9352C908.438 72.8941 894.383 78.13 882.106 73.4889C865.252 67.1173 847.962 61.9647 830.37 58.071C817.556 55.2348 808.66 43.1591 810.681 30.1913Z" fill="#603A18"/>
<path d="M877.627 613.512C856.437 610.404 846.255 591.918 859.416 573.54C865.346 565.259 871.921 557.233 879.083 549.533C894.978 532.442 921.35 531.165 934.42 544.185L938.956 548.704C949.521 559.229 945.158 577.349 933.379 591.727C921.6 606.105 902.109 617.103 884.981 614.591L877.627 613.512Z" fill="#FCD7E4"/>
<path d="M411.768 1015.77C416.811 1003.65 430.756 997.854 442.571 1003.57C462.646 1013.27 481.923 1024.55 500.223 1037.29C510.994 1044.79 512.775 1059.79 504.684 1070.12C496.593 1080.46 481.696 1082.21 470.873 1074.78C456.013 1064.59 440.441 1055.48 424.276 1047.52C412.501 1041.73 406.726 1027.88 411.768 1015.77Z" fill="#603A18"/>
<path d="M295.878 428.177C259.107 460.332 203.744 462.227 188.327 423.098C181.576 405.965 177.224 387.712 175.447 368.726C171.228 323.646 181.719 276.459 205.595 233.134C229.47 189.81 265.657 152.292 309.58 125.326C328.077 113.97 347.597 104.7 367.669 97.6594C413.51 81.581 448.127 117.333 442.914 161.364L438.669 197.218C435.8 221.446 411.02 240.875 388.019 254.996C374.035 263.582 362.513 275.526 354.912 289.32C347.311 303.114 343.97 318.137 345.314 332.49C347.523 356.098 346.056 384.298 325.822 401.992L295.878 428.177Z" fill="#F1582E"/>
<path d="M129.589 538.266C133.7 520.677 151.515 509.456 167.895 517.072C175.274 520.503 182.38 524.496 189.149 529.015C204.172 539.045 203.852 560.098 190.966 572.756L186.494 577.149C176.077 587.381 159.435 586.816 146.705 579.663C133.976 572.51 124.839 558.589 128.162 544.37L129.589 538.266Z" fill="#BBA9D1"/>
<path d="M546.154 207.464C559.956 223.84 555.323 244.43 533.284 249.462C523.355 251.729 513.112 253.378 502.645 254.395C479.414 256.651 458.825 240.122 457.673 221.709L457.274 215.319C456.343 200.435 471.623 189.763 489.973 186.809C508.324 183.854 530.207 188.544 541.364 201.781L546.154 207.464Z" fill="#FCD7E4"/>
<path d="M930.87 207.713C938.624 190.509 958.462 183.044 972.905 194.687C990.433 208.818 1005.13 226.675 1015.95 247.227C1026.77 267.779 1033.35 290.339 1035.42 313.437C1037.13 332.468 1020.55 346.128 1002.55 343.866C984.549 341.603 972.16 324.006 967.889 305.408C965.901 296.751 962.806 288.356 958.652 280.465C954.497 272.573 949.372 265.357 943.447 258.983C930.719 245.292 923.117 224.917 930.87 207.713Z" fill="#F1582E"/>
<path d="M1275.99 113.534C1270.39 130.707 1251.68 140.362 1236.01 131.373C1228.95 127.323 1222.21 122.736 1215.86 117.655C1201.75 106.376 1203.87 85.4286 1217.79 73.9191L1222.62 69.925C1233.87 60.6214 1250.41 62.6083 1262.48 70.8243C1274.55 79.0402 1282.46 93.6921 1277.93 107.574L1275.99 113.534Z" fill="#F1582E"/>
<path d="M640.713 820.797C625.416 805.808 628.07 784.871 649.53 777.766C659.198 774.564 669.238 771.949 679.561 769.941C702.472 765.486 724.54 779.982 727.437 798.202L728.443 804.525C730.785 819.253 716.59 831.329 698.603 836.016C680.617 840.702 658.387 838.115 646.021 825.999L640.713 820.797Z" fill="#603A18"/>
<path d="M143.453 645.045C115.715 633.452 83.2156 646.556 77.5314 676.077C70.6327 711.905 71.178 748.971 79.3695 784.927C87.561 820.883 103.125 854.528 124.862 883.831C142.773 907.977 177.741 905.71 197.72 883.246C217.699 860.782 214.567 826.556 200.297 800.095C193.655 787.778 188.663 774.55 185.518 760.744C182.372 746.938 181.142 732.854 181.793 718.875C183.193 688.844 171.191 656.638 143.453 645.045Z" fill="#FCD7E4"/>
<path d="M372.573 502.591C354.54 485.46 326.1 486.138 313.667 507.428C298.577 533.266 288.84 562.245 285.253 592.599C281.666 622.953 284.35 653.667 292.943 682.812C300.024 706.827 327.382 715.297 348.813 703.678C370.243 692.058 377.224 664.529 373.562 639.78C371.858 628.259 371.664 616.514 373.042 604.859C374.419 593.203 377.336 581.892 381.664 571.214C390.961 548.274 390.607 519.721 372.573 502.591Z" fill="#F1582E"/>
<path d="M383.607 207.675C353.38 208.679 325.195 191.559 332.116 170.908C335.146 161.866 339.784 153.149 345.973 144.971C360.669 125.552 383.45 110.041 411.437 100.398C439.423 90.7554 471.357 87.4145 503.201 90.7981C516.612 92.223 529.753 94.8136 542.337 98.4759C571.078 106.84 574.944 132.339 555.958 148.291L540.498 161.281C530.05 170.058 510.515 169.838 493.839 168.066C483.701 166.989 473.534 168.052 464.623 171.122C455.713 174.192 448.46 179.131 443.781 185.314C436.085 195.483 424.854 206.304 408.221 206.857L383.607 207.675Z" fill="#FFEFD2"/>
<path d="M333.824 307.215C358.34 293.334 378.187 304.892 372.601 335.3C370.084 349 366.744 362.951 362.613 377.03C353.443 408.278 325.373 431.071 304.981 427.722L297.904 426.56C281.419 423.852 277.562 400.87 283.544 375.877C289.526 350.884 305.498 323.251 325.316 312.031L333.824 307.215Z" fill="#603A18"/>
<path d="M1049.94 142.701C1058.84 115.27 1087.73 100.61 1111.62 115.881C1140.61 134.414 1165.91 159.082 1185.79 188.492C1205.66 217.902 1219.44 251.071 1226.46 285.811C1232.23 314.436 1209.34 337.96 1181.61 337.535C1153.89 337.11 1132.12 312.451 1122.52 284.914C1118.05 272.095 1111.95 259.861 1104.32 248.569C1096.69 237.276 1087.69 227.171 1077.63 218.481C1056 199.812 1041.04 170.133 1049.94 142.701Z" fill="#BBA9D1"/>
<path d="M1110.4 546.285C1153.47 543.662 1194.34 578.171 1191.69 622.552C1188.48 676.416 1174.38 728.346 1149.96 774.936C1125.53 821.525 1091.6 861.218 1050.57 891.747C1016.77 916.903 968.536 896.436 948.596 854.931C928.656 813.426 945.362 766.773 974.894 736.558C988.641 722.493 1000.4 706.331 1009.78 688.442C1019.16 670.553 1025.95 651.326 1030.06 631.318C1038.9 588.335 1067.32 548.909 1110.4 546.285Z" fill="#F1582E"/>
<path d="M1133.44 709.495C1143.36 713.607 1148.11 725.006 1143.45 734.674C1135.53 751.102 1126.33 766.879 1115.93 781.858C1109.8 790.674 1097.54 792.146 1089.08 785.539C1080.62 778.931 1079.18 766.75 1085.24 757.891C1093.56 745.728 1100.99 732.984 1107.48 719.755C1112.21 710.12 1123.53 705.383 1133.44 709.495Z" fill="white"/>
</svg>
