<svg width="1291" height="1090" viewBox="0 0 1291 1090" fill="none" xmlns="http://www.w3.org/2000/svg">
<path d="M410.768 1015.77C415.811 1003.65 429.756 997.854 441.571 1003.57C461.646 1013.27 480.923 1024.55 499.223 1037.29C509.994 1044.79 511.775 1059.79 503.684 1070.12C495.593 1080.46 480.696 1082.21 469.873 1074.78C455.013 1064.59 439.441 1055.48 423.276 1047.52C411.501 1041.73 405.726 1027.88 410.768 1015.77Z" fill="#603A18"/>
<path d="M294.878 428.177C258.107 460.332 202.744 462.227 187.327 423.098C180.576 405.965 176.224 387.712 174.447 368.727C170.228 323.646 180.719 276.459 204.595 233.135C228.47 189.81 264.657 152.292 308.58 125.326C327.077 113.97 346.597 104.7 366.669 97.6595C412.51 81.5811 447.127 117.333 441.914 161.364L437.669 197.218C434.8 221.446 410.02 240.875 387.019 254.996C373.035 263.582 361.513 275.527 353.912 289.32C346.311 303.114 342.97 318.137 344.314 332.49C346.523 356.098 345.056 384.298 324.822 401.992L294.878 428.177Z" fill="#F1582E"/>
<path d="M128.589 538.266C132.7 520.676 150.515 509.456 166.895 517.072C174.274 520.503 181.38 524.496 188.149 529.015C203.172 539.045 202.852 560.097 189.966 572.756L185.494 577.149C175.077 587.381 158.435 586.816 145.705 579.663C132.976 572.51 123.839 558.588 127.162 544.37L128.589 538.266Z" fill="#BBA9D1"/>
<path d="M545.154 207.464C558.956 223.84 554.323 244.43 532.284 249.462C522.355 251.729 512.112 253.378 501.645 254.395C478.414 256.651 457.825 240.122 456.673 221.709L456.274 215.319C455.343 200.435 470.623 189.763 488.973 186.809C507.324 183.854 529.207 188.544 540.364 201.781L545.154 207.464Z" fill="#FCD7E4"/>
<path d="M929.87 207.713C937.624 190.509 957.462 183.044 971.905 194.687C989.433 208.818 1004.13 226.675 1014.95 247.227C1025.77 267.779 1032.35 290.339 1034.42 313.437C1036.13 332.468 1019.55 346.128 1001.55 343.866C983.549 341.603 971.16 324.006 966.889 305.408C964.901 296.751 961.806 288.356 957.652 280.465C953.497 272.573 948.372 265.357 942.447 258.983C929.719 245.292 922.117 224.917 929.87 207.713Z" fill="#F1582E"/>
<path d="M1274.99 113.533C1269.39 130.707 1250.68 140.362 1235.01 131.373C1227.95 127.322 1221.21 122.736 1214.86 117.655C1200.75 106.376 1202.87 85.4283 1216.79 73.9189L1221.62 69.9247C1232.87 60.6212 1249.41 62.608 1261.48 70.824C1273.55 79.04 1281.46 93.6919 1276.93 107.574L1274.99 113.533Z" fill="#F1582E"/>
<path d="M639.713 820.797C624.416 805.808 627.07 784.871 648.53 777.766C658.198 774.565 668.238 771.949 678.561 769.942C701.472 765.486 723.54 779.982 726.437 798.202L727.443 804.525C729.785 819.253 715.59 831.33 697.603 836.016C679.617 840.702 657.387 838.115 645.021 825.999L639.713 820.797Z" fill="#603A18"/>
</svg>
