<svg width="4121" height="66" viewBox="0 0 4121 66" fill="none" xmlns="http://www.w3.org/2000/svg">
<path fill-rule="evenodd" clip-rule="evenodd" d="M3247.53 23.0568C3245.2 22.695 3242.88 22.3076 3240.58 21.8929C3167.28 8.72406 3129.2 12.7776 3086.5 18.0299C3043.8 12.7776 3005.72 8.72406 2932.42 21.8929C2930.12 22.3076 2927.8 22.695 2925.47 23.0568C2887.61 20.3151 2841.55 14.8818 2783.8 5.34208C2694.81 -9.35469 2611.44 9.3518 2544.5 24.3702C2503.67 33.531 2468.95 41.3197 2442.81 39.3179C2312.87 29.3672 2271.28 34.5911 2221.02 40.9033C2183.28 45.6446 2140.64 51 2052 51L2052 66H2681H3492H4121V51C4032.36 51 3989.72 45.6446 3951.98 40.9033C3901.72 34.5911 3860.13 29.3672 3730.19 39.3179C3704.05 41.3197 3669.33 33.531 3628.5 24.3702C3561.56 9.3518 3478.19 -9.35469 3389.2 5.34208C3331.45 14.8818 3285.39 20.3151 3247.53 23.0568Z" fill="#F8C013"/>
<path fill-rule="evenodd" clip-rule="evenodd" d="M1195.53 23.0568C1193.2 22.695 1190.88 22.3076 1188.58 21.8929C1115.28 8.72406 1077.2 12.7776 1034.5 18.0299C991.804 12.7776 953.715 8.72406 880.423 21.8929C878.116 22.3076 875.797 22.695 873.47 23.0568C835.608 20.3151 789.555 14.8818 731.795 5.34208C642.812 -9.35469 559.436 9.3518 492.498 24.3702C451.667 33.531 416.953 41.3197 390.812 39.3179C260.869 29.3672 219.279 34.5911 169.024 40.9033C131.276 45.6446 88.6396 51 5.72205e-06 51L0 66H629H1440H2069V51C1980.36 51 1937.72 45.6446 1899.98 40.9033C1849.72 34.5911 1808.13 29.3672 1678.19 39.3179C1652.05 41.3197 1617.33 33.531 1576.5 24.3702C1509.56 9.3518 1426.19 -9.35469 1337.2 5.34208C1279.45 14.8818 1233.39 20.3151 1195.53 23.0568Z" fill="#F8C013"/>
</svg>
