<svg width="779" height="350" viewBox="0 0 779 350" fill="none" xmlns="http://www.w3.org/2000/svg">
<mask id="mask0" mask-type="alpha" maskUnits="userSpaceOnUse" x="0" y="0" width="779" height="350">
<rect width="779" height="350" fill="#603A18"/>
</mask>
<g mask="url(#mask0)">
<path d="M167.384 -402.543C44.2781 -424.421 -77.2633 -340.093 -56.7149 -216.641C-47.7173 -162.584 -32.0315 -109.566 -9.8077 -58.8458C42.9628 61.5883 130.226 163.654 240.947 234.445C351.668 305.236 480.873 341.572 612.225 338.858C667.542 337.716 722.194 329.669 774.975 315.111C895.514 281.864 920.845 136.023 849.251 33.4175L790.952 -50.1348C751.556 -106.595 671.669 -115.69 602.883 -114.269C561.063 -113.406 519.927 -124.974 484.676 -147.512C449.425 -170.051 421.642 -202.546 404.841 -240.89C377.206 -303.959 335.372 -372.688 267.63 -384.727L167.384 -402.543Z" fill="#F1582E"/>
</g>
</svg>
