<svg width="352" height="355" viewBox="0 0 352 355" fill="none" xmlns="http://www.w3.org/2000/svg">
<rect x="88" y="89" width="176" height="177" rx="88" fill="#F8C013"/>
<rect x="7" y="7" width="338" height="341" rx="169" stroke="#F8C013" stroke-width="14" stroke-linecap="round" stroke-dasharray="1 120"/>
<rect x="183" y="70" width="14" height="41" rx="7" transform="rotate(180 183 70)" fill="#603A18"/>
<rect x="169" y="286" width="14" height="41" rx="7" fill="#603A18"/>
<rect x="68" y="171" width="14" height="41" rx="7" transform="rotate(90 68 171)" fill="#603A18"/>
<rect x="284" y="185" width="14" height="41" rx="7" transform="rotate(-90 284 185)" fill="#603A18"/>
<rect x="257.317" y="106.582" width="14" height="41" rx="7" transform="rotate(-135 257.317 106.582)" fill="#603A18"/>
<rect x="94.6826" y="249.418" width="14" height="41" rx="7" transform="rotate(45 94.6826 249.418)" fill="#603A18"/>
<rect x="104.582" y="96.6827" width="14" height="41" rx="7" transform="rotate(135 104.582 96.6827)" fill="#603A18"/>
<rect x="247.418" y="259.317" width="14" height="41" rx="7" transform="rotate(-45 247.418 259.317)" fill="#603A18"/>
<rect x="240.325" y="41.8955" width="10" height="10" rx="5" transform="rotate(-157.95 240.325 41.8955)" fill="#BBA9D1"/>
<rect x="113.337" y="322.416" width="10" height="10" rx="5" transform="rotate(-146.478 113.337 322.416)" fill="#BBA9D1"/>
<rect x="117.269" y="42.0227" width="10" height="10" rx="5" transform="rotate(-157.95 117.269 42.0227)" fill="#BBA9D1"/>
<rect x="35.5527" y="244.309" width="10" height="10" rx="5" transform="rotate(-148.791 35.5527 244.309)" fill="#BBA9D1"/>
<rect x="33.2686" y="128.023" width="10" height="10" rx="5" transform="rotate(-157.95 33.2686 128.023)" fill="#BBA9D1"/>
<rect x="319.265" y="115.293" width="10" height="10" rx="5" transform="rotate(-172.95 319.265 115.293)" fill="#BBA9D1"/>
<rect x="246.271" y="323.792" width="10" height="10" rx="5" transform="rotate(-166.891 246.271 323.792)" fill="#BBA9D1"/>
<rect x="321.246" y="246.327" width="10" height="10" rx="5" transform="rotate(-157.95 321.246 246.327)" fill="#BBA9D1"/>
<rect x="231.954" y="73.0524" width="20.2401" height="20.2401" rx="10.1201" transform="rotate(-157.95 231.954 73.0524)" fill="#F1582E"/>
<rect x="131.764" y="300.052" width="20.2401" height="20.2401" rx="10.1201" transform="rotate(-146.478 131.764 300.052)" fill="#F1582E"/>
<rect x="132.421" y="72.9862" width="20.2401" height="20.2401" rx="10.1201" transform="rotate(-157.95 132.421 72.9862)" fill="#F1582E"/>
<rect x="66.1284" y="239.799" width="20.2401" height="20.2401" rx="10.1201" transform="rotate(-148.791 66.1284 239.799)" fill="#F1582E"/>
<rect x="62.9307" y="143.227" width="20.2401" height="20.2401" rx="10.1201" transform="rotate(-157.95 62.9307 143.227)" fill="#F1582E"/>
<rect x="297.109" y="137.43" width="20.2401" height="20.2401" rx="10.1201" transform="rotate(-172.95 297.109 137.43)" fill="#F1582E"/>
<rect x="230.617" y="300.305" width="20.2401" height="20.2401" rx="10.1201" transform="rotate(-166.891 230.617 300.305)" fill="#F1582E"/>
<rect x="293.922" y="238.451" width="20.2401" height="20.2401" rx="10.1201" transform="rotate(-157.95 293.922 238.451)" fill="#F1582E"/>
</svg>
