<svg width="960" height="1123" viewBox="0 0 960 1123" fill="none" xmlns="http://www.w3.org/2000/svg">
<path d="M785.864 742.929C778.09 739.694 774.371 730.748 778.037 723.167C784.265 710.288 791.5 697.92 799.675 686.18C804.486 679.269 814.107 678.127 820.736 683.318C827.366 688.509 828.489 698.066 823.726 705.01C817.188 714.543 811.344 724.534 806.238 734.905C802.518 742.459 793.638 746.164 785.864 742.929Z" fill="#603A18"/>
<path d="M684.642 600.666C721.458 586.422 764.23 605.147 765.348 644.607C765.838 661.886 764.193 679.249 760.382 696.297C751.334 736.778 730.485 773.667 700.472 802.299C670.459 830.932 632.629 850.021 591.767 857.153C574.558 860.157 557.137 860.983 539.9 859.68C500.537 856.705 483.846 813.1 499.807 776.995L512.804 747.594C521.587 727.726 545.788 720.063 567.187 716.328C580.196 714.057 592.24 707.979 601.796 698.863C611.352 689.748 617.989 678.003 620.87 665.115C625.608 643.915 634.403 620.102 654.662 612.264L684.642 600.666Z" fill="#F8C013"/>
<path d="M548.021 915.071C540.583 932.867 548.99 953.718 567.93 957.365C590.915 961.79 614.696 961.441 637.764 956.185C660.832 950.93 682.418 940.944 701.218 926.999C716.709 915.508 715.255 893.073 700.842 880.255C686.43 867.437 664.472 869.447 647.495 878.602C639.593 882.864 631.107 886.066 622.249 888.084C613.392 890.102 604.356 890.891 595.387 890.473C576.121 889.576 555.458 897.276 548.021 915.071Z" fill="#FCD7E4"/>
<path d="M734.003 508.051C753.621 503.3 768.565 481.173 762.973 460.404C756.187 435.199 744.7 412.43 729.103 393.644C713.506 374.858 694.32 360.68 672.853 351.855C655.165 344.584 635.52 361.049 630.676 383.594C625.831 406.139 637.966 426.031 654.235 436.307C661.808 441.091 668.696 447.15 674.685 454.363C680.673 461.577 685.633 469.788 689.467 478.744C697.703 497.983 714.385 512.801 734.003 508.051Z" fill="#603A18"/>
<path d="M392.798 770.089C399.529 793.694 385.507 819.116 361.01 817.57C350.283 816.893 339.625 814.889 329.285 811.563C304.732 803.663 283.073 788.661 267.046 768.452C251.02 748.243 241.346 723.735 239.248 698.028C238.364 687.202 238.841 676.368 240.625 665.769C244.701 641.563 272.649 633.702 294.1 645.634L311.568 655.35C323.371 661.915 326.744 677.335 327.843 690.798C328.511 698.982 331.591 706.785 336.693 713.219C341.796 719.653 348.691 724.43 356.509 726.945C369.367 731.081 383.613 737.878 387.317 750.867L392.798 770.089Z" fill="#BBA9D1"/>
<path d="M408.885 817.28C429.515 840.872 430.73 876.391 405.626 886.282C394.634 890.613 382.924 893.405 370.743 894.545C341.821 897.252 311.548 890.521 283.752 875.203C255.956 859.886 231.886 836.669 214.586 808.49C207.3 796.623 201.353 784.099 196.836 771.222C186.52 741.812 209.458 719.603 237.706 722.947L260.709 725.671C276.253 727.511 288.718 743.409 297.778 758.166C303.286 767.138 310.949 774.529 319.799 779.406C328.648 784.283 338.287 786.426 347.495 785.564C362.641 784.147 380.734 785.088 392.086 798.07L408.885 817.28Z" fill="#F1582E"/>
<path d="M456.626 768.076C445.636 779.645 446.071 797.891 459.73 805.868C476.306 815.549 494.899 821.796 514.373 824.097C533.847 826.398 553.552 824.677 572.25 819.164C587.658 814.621 593.092 797.069 585.637 783.32C578.182 769.57 560.521 765.092 544.642 767.441C537.251 768.535 529.716 768.659 522.238 767.775C514.76 766.892 507.504 765.02 500.653 762.243C485.936 756.279 467.617 756.506 456.626 768.076Z" fill="#F1582E"/>
<path d="M267.418 760.997C268.062 780.389 257.079 798.472 243.83 794.032C238.028 792.087 232.436 789.112 227.189 785.141C214.731 775.713 204.779 761.097 198.593 743.142C192.406 725.187 190.263 704.699 192.434 684.269C193.348 675.665 195.01 667.234 197.359 659.16C202.725 640.721 219.085 638.241 229.319 650.422L237.653 660.341C243.285 667.043 243.143 679.577 242.006 690.275C241.315 696.78 241.997 703.303 243.967 709.019C245.937 714.736 249.105 719.389 253.072 722.391C259.596 727.328 266.539 734.534 266.893 745.205L267.418 760.997Z" fill="#F8C013"/>
<path d="M479.514 923.967C468.229 921.329 461.03 909.899 465.917 899.391C468.118 894.656 470.68 890.097 473.579 885.755C480.014 876.117 493.521 876.322 501.642 884.589L504.46 887.458C511.025 894.141 510.662 904.818 506.073 912.985C501.484 921.152 492.553 927.014 483.43 924.882L479.514 923.967Z" fill="#BBA9D1"/>
<path d="M331.28 792.936C322.375 777.207 329.79 764.474 349.298 768.058C358.088 769.673 367.038 771.815 376.071 774.466C396.118 780.349 410.742 798.357 408.593 811.441L407.847 815.981C406.11 826.557 391.366 829.032 375.331 825.194C359.296 821.356 341.568 811.109 334.37 798.394L331.28 792.936Z" fill="#603A18"/>
<path d="M267.283 656.712C277.789 647.857 290.999 650.83 294.227 664.969C295.682 671.339 296.74 677.911 297.392 684.626C298.839 699.53 288.235 712.739 276.422 713.478L272.322 713.735C262.773 714.332 255.927 704.529 254.031 692.756C252.136 680.983 255.144 666.943 263.637 659.785L267.283 656.712Z" fill="#FCD7E4"/>
<path d="M270.804 582.988C233.102 600.623 186.761 584.006 182.742 542.578C180.983 524.438 181.463 506.055 184.243 487.847C190.846 444.612 210.12 404.306 239.629 372.026C269.139 339.746 307.558 316.941 350.028 306.495C367.914 302.096 386.18 299.973 404.405 300.101C446.026 300.396 466.724 345.063 452.535 384.192L440.98 416.055C433.172 437.587 408.267 447.392 386.027 452.862C372.505 456.187 360.273 463.448 350.878 473.725C341.483 484.003 335.346 496.835 333.244 510.6C329.787 533.241 322.251 558.924 301.505 568.628L270.804 582.988Z" fill="#F8C013"/>
<path d="M153.551 487C145.231 485.703 139.495 477.895 141.256 469.661C144.249 455.671 148.341 441.939 153.495 428.594C156.528 420.739 165.603 417.345 173.275 420.813C180.947 424.282 184.307 433.3 181.329 441.176C177.241 451.989 173.935 463.081 171.437 474.368C169.618 482.589 161.87 488.297 153.551 487Z" fill="#603A18"/>
<path d="M225.733 333.498C208.134 327.788 198.729 309.255 208.526 293.929C220.416 275.33 236.243 259.094 255.111 246.342C273.979 233.591 295.259 224.751 317.548 220.252C335.912 216.546 351.005 231.236 350.732 249.023C350.459 266.811 334.639 280.774 316.972 286.933C308.748 289.8 300.899 293.717 293.654 298.613C286.409 303.509 279.926 309.278 274.351 315.737C262.373 329.611 243.332 339.207 225.733 333.498Z" fill="#BBA9D1"/>
<path d="M484.66 294.712C482.977 267.077 505.116 240.858 533.59 242.556C568.147 244.618 601.464 253.663 631.354 269.332C661.244 285.002 686.71 306.772 706.297 333.094C722.436 354.783 709.305 385.725 682.677 398.518C656.048 411.311 626.117 400.593 606.732 381.646C597.709 372.827 587.34 365.282 575.863 359.265C564.385 353.249 552.05 348.891 539.214 346.251C511.637 340.579 486.343 322.347 484.66 294.712Z" fill="#F1582E"/>
<path d="M589.369 279.926C592.007 273.565 599.321 270.515 605.524 273.505C616.063 278.586 626.185 284.491 635.795 291.165C641.451 295.093 642.395 302.96 638.156 308.387C633.918 313.814 626.103 314.742 620.419 310.854C612.616 305.516 604.439 300.746 595.952 296.581C589.77 293.546 586.731 286.287 589.369 279.926Z" fill="white"/>
<path d="M267.443 409.89C256.405 404.916 251.616 392.188 259.086 382.922C268.152 371.677 279.608 362.251 292.794 355.309C305.979 348.367 320.453 344.142 335.272 342.812C347.482 341.717 356.245 352.353 354.794 363.902C353.342 375.452 342.052 383.4 330.12 386.141C324.566 387.416 319.181 389.401 314.118 392.067C309.055 394.732 304.425 398.02 300.336 401.821C291.552 409.988 278.48 414.865 267.443 409.89Z" fill="#F1582E"/>
<path d="M207.02 188.473C218.038 192.067 224.233 204.071 218.465 214.123C215.867 218.651 212.924 222.974 209.664 227.053C202.428 236.105 188.989 234.745 181.605 225.813L179.042 222.714C173.073 215.494 174.348 204.887 179.619 197.142C184.89 189.398 194.291 184.322 203.197 187.226L207.02 188.473Z" fill="#F1582E"/>
<path d="M527.79 444.049C525.796 457.644 513.936 464.177 502.145 455.733C496.832 451.928 491.683 447.71 486.743 443.115C475.778 432.917 474.958 415.998 483.312 407.613L486.211 404.703C492.963 397.924 504.589 400.724 513.813 408.281C523.038 415.837 530.094 428.342 528.482 439.331L527.79 444.049Z" fill="#FCD7E4"/>
<path d="M660.777 596.046C651.16 605.86 637.728 604.157 633.17 590.389C631.116 584.186 629.438 577.745 628.15 571.122C625.291 556.423 634.591 542.265 646.281 540.406L650.337 539.761C659.786 538.258 667.534 547.366 670.541 558.905C673.547 570.445 671.888 584.707 664.114 592.64L660.777 596.046Z" fill="#603A18"/>
</svg>
