<svg width="1291" height="1090" viewBox="0 0 1291 1090" fill="none" xmlns="http://www.w3.org/2000/svg">
<g clip-path="url(#clip0)">
<path d="M142.453 645.045C114.715 633.452 82.2156 646.556 76.5314 676.077C69.6327 711.905 70.178 748.971 78.3695 784.927C86.561 820.883 102.125 854.528 123.862 883.831C141.773 907.977 176.741 905.71 196.72 883.246C216.699 860.782 213.567 826.556 199.297 800.095C192.655 787.778 187.663 774.55 184.518 760.744C181.372 746.938 180.142 732.854 180.793 718.875C182.193 688.844 170.191 656.638 142.453 645.045Z" fill="#FCD7E4"/>
<path d="M371.573 502.591C353.54 485.46 325.1 486.138 312.667 507.428C297.577 533.266 287.84 562.245 284.253 592.599C280.666 622.953 283.35 653.667 291.943 682.812C299.024 706.827 326.382 715.297 347.813 703.678C369.243 692.058 376.224 664.529 372.562 639.78C370.858 628.259 370.664 616.514 372.042 604.859C373.419 593.203 376.336 581.892 380.664 571.214C389.961 548.274 389.607 519.721 371.573 502.591Z" fill="#F1582E"/>
<path d="M382.607 207.675C352.38 208.68 324.195 191.56 331.116 170.909C334.146 161.866 338.784 153.15 344.973 144.972C359.669 125.553 382.45 110.041 410.437 100.398C438.423 90.7556 470.357 87.4148 502.201 90.7983C515.612 92.2232 528.753 94.8139 541.337 98.4761C570.078 106.84 573.944 132.339 554.958 148.291L539.498 161.281C529.05 170.059 509.515 169.838 492.839 168.066C482.701 166.989 472.534 168.053 463.623 171.123C454.713 174.193 447.46 179.131 442.781 185.314C435.085 195.483 423.854 206.304 407.221 206.857L382.607 207.675Z" fill="#FFEFD2"/>
<path d="M332.824 307.215C357.34 293.334 377.187 304.892 371.601 335.3C369.084 349 365.744 362.951 361.613 377.03C352.443 408.278 324.373 431.071 303.981 427.722L296.904 426.56C280.419 423.852 276.562 400.87 282.544 375.877C288.526 350.884 304.498 323.251 324.316 312.031L332.824 307.215Z" fill="#603A18"/>
<path d="M1048.94 142.702C1057.84 115.27 1086.73 100.61 1110.62 115.881C1139.61 134.414 1164.91 159.083 1184.79 188.492C1204.66 217.902 1218.44 251.071 1225.46 285.811C1231.23 314.436 1208.34 337.96 1180.61 337.535C1152.89 337.11 1131.12 312.451 1121.52 284.914C1117.05 272.095 1110.95 259.861 1103.32 248.569C1095.69 237.276 1086.69 227.171 1076.63 218.481C1055 199.812 1040.04 170.133 1048.94 142.702Z" fill="#BBA9D1"/>
<path d="M1109.4 546.285C1152.47 543.662 1193.34 578.171 1190.69 622.552C1187.48 676.416 1173.38 728.346 1148.96 774.936C1124.53 821.525 1090.6 861.218 1049.57 891.747C1015.77 916.903 967.536 896.436 947.596 854.931C927.656 813.426 944.362 766.773 973.894 736.558C987.641 722.493 999.401 706.331 1008.78 688.442C1018.16 670.553 1024.95 651.326 1029.06 631.318C1037.9 588.335 1066.32 548.909 1109.4 546.285Z" fill="#F1582E"/>
<path d="M1132.44 709.495C1142.36 713.607 1147.11 725.006 1142.45 734.674C1134.53 751.102 1125.33 766.879 1114.93 781.858C1108.8 790.674 1096.54 792.146 1088.08 785.539C1079.62 778.931 1078.18 766.75 1084.24 757.891C1092.56 745.728 1099.99 732.984 1106.48 719.755C1111.21 710.12 1122.53 705.383 1132.44 709.495Z" fill="white"/>
</g>
<defs>
<clipPath id="clip0">
<rect width="1291" height="1090" fill="white"/>
</clipPath>
</defs>
</svg>
