<svg width="1440" height="72" viewBox="0 0 1440 72" fill="none" xmlns="http://www.w3.org/2000/svg">
<path d="M215.4 9.6C206.4 5.04 196.44 0 180 0C163.56 0 153.6 5.04 144.6 9.6C136.8 13.44 130.44 16.8 120 16.8C109.2 16.8 103.2 13.8 95.4 9.6C86.4 5.16 76.56 0 60 0C43.44 0 33.6 5.04 24.6 9.6C16.8 13.56 10.56 16.8 0 16.8V39.96C16.2 39.96 26.4 34.8 35.4 30.36C43.2 26.4 49.44 23.16 60 23.16C70.56 23.16 76.8 26.16 84.6 30.36C93.6 34.92 103.44 39.96 120 39.96C136.56 39.96 146.4 34.8 155.4 30.36C163.2 26.52 169.56 23.16 180 23.16C190.8 23.16 196.8 26.16 204.6 30.36C213.6 34.92 223.56 39.96 240 39.96V16.56C229.2 16.56 223.2 13.56 215.4 9.6Z" fill="#603A18"/>
<path d="M1175.4 9.6C1166.4 5.04 1156.44 0 1140 0C1123.56 0 1113.6 5.04 1104.6 9.6C1096.8 13.44 1090.44 16.8 1080 16.8C1069.2 16.8 1063.2 13.8 1055.4 9.6C1046.4 5.16 1036.56 0 1020 0C1003.44 0 993.6 5.04 984.6 9.6C976.8 13.56 970.56 16.8 960 16.8V39.96C976.2 39.96 986.4 34.8 995.4 30.36C1003.2 26.4 1009.44 23.16 1020 23.16C1030.56 23.16 1036.8 26.16 1044.6 30.36C1053.6 34.92 1063.44 39.96 1080 39.96C1096.56 39.96 1106.4 34.8 1115.4 30.36C1123.2 26.52 1129.56 23.16 1140 23.16C1150.8 23.16 1156.8 26.16 1164.6 30.36C1173.6 34.92 1183.56 39.96 1200 39.96V16.56C1189.2 16.56 1183.2 13.56 1175.4 9.6Z" fill="#603A18"/>
<path d="M695.4 9.6C686.4 5.04 676.44 0 660 0C643.56 0 633.6 5.04 624.6 9.6C616.8 13.44 610.44 16.8 600 16.8C589.2 16.8 583.2 13.8 575.4 9.6C566.4 5.16 556.56 0 540 0C523.44 0 513.6 5.04 504.6 9.6C496.8 13.56 490.56 16.8 480 16.8V39.96C496.2 39.96 506.4 34.8 515.4 30.36C523.2 26.4 529.44 23.16 540 23.16C550.56 23.16 556.8 26.16 564.6 30.36C573.6 34.92 583.44 39.96 600 39.96C616.56 39.96 626.4 34.8 635.4 30.36C643.2 26.52 649.56 23.16 660 23.16C670.8 23.16 676.8 26.16 684.6 30.36C693.6 34.92 703.56 39.96 720 39.96V16.56C709.2 16.56 703.2 13.56 695.4 9.6Z" fill="#603A18"/>
<path d="M455.4 9.6C446.4 5.04 436.44 0 420 0C403.56 0 393.6 5.04 384.6 9.6C376.8 13.44 370.44 16.8 360 16.8C349.2 16.8 343.2 13.8 335.4 9.6C326.4 5.16 316.56 0 300 0C283.44 0 273.6 5.04 264.6 9.6C256.8 13.56 250.56 16.8 240 16.8V39.96C256.2 39.96 266.4 34.8 275.4 30.36C283.2 26.4 289.44 23.16 300 23.16C310.56 23.16 316.8 26.16 324.6 30.36C333.6 34.92 343.44 39.96 360 39.96C376.56 39.96 386.4 34.8 395.4 30.36C403.2 26.52 409.56 23.16 420 23.16C430.8 23.16 436.8 26.16 444.6 30.36C453.6 34.92 463.56 39.96 480 39.96V16.56C469.2 16.56 463.2 13.56 455.4 9.6Z" fill="#603A18"/>
<path d="M1415.4 9.6C1406.4 5.04 1396.44 0 1380 0C1363.56 0 1353.6 5.04 1344.6 9.6C1336.8 13.44 1330.44 16.8 1320 16.8C1309.2 16.8 1303.2 13.8 1295.4 9.6C1286.4 5.16 1276.56 0 1260 0C1243.44 0 1233.6 5.04 1224.6 9.6C1216.8 13.56 1210.56 16.8 1200 16.8V39.96C1216.2 39.96 1226.4 34.8 1235.4 30.36C1243.2 26.4 1249.44 23.16 1260 23.16C1270.56 23.16 1276.8 26.16 1284.6 30.36C1293.6 34.92 1303.44 39.96 1320 39.96C1336.56 39.96 1346.4 34.8 1355.4 30.36C1363.2 26.52 1369.56 23.16 1380 23.16C1390.8 23.16 1396.8 26.16 1404.6 30.36C1413.6 34.92 1423.56 39.96 1440 39.96V16.56C1429.2 16.56 1423.2 13.56 1415.4 9.6Z" fill="#603A18"/>
<path d="M935.4 9.6C926.4 5.04 916.44 0 900 0C883.56 0 873.6 5.04 864.6 9.6C856.8 13.44 850.44 16.8 840 16.8C829.2 16.8 823.2 13.8 815.4 9.6C806.4 5.16 796.56 0 780 0C763.44 0 753.6 5.04 744.6 9.6C736.8 13.56 730.56 16.8 720 16.8V39.96C736.2 39.96 746.4 34.8 755.4 30.36C763.2 26.4 769.44 23.16 780 23.16C790.56 23.16 796.8 26.16 804.6 30.36C813.6 34.92 823.44 39.96 840 39.96C856.56 39.96 866.4 34.8 875.4 30.36C883.2 26.52 889.56 23.16 900 23.16C910.8 23.16 916.8 26.16 924.6 30.36C933.6 34.92 943.56 39.96 960 39.96V16.56C949.2 16.56 943.2 13.56 935.4 9.6Z" fill="#603A18"/>
<path d="M0 18H1440V72H0V18Z" fill="#603A18"/>
</svg>
