<svg width="838" height="745" viewBox="0 0 838 745" fill="none" xmlns="http://www.w3.org/2000/svg">
<path d="M226.384 3.45733C103.278 -18.4212 -18.2633 65.9068 2.28508 189.359C11.2827 243.416 26.9685 296.434 49.1923 347.154C101.963 467.588 189.226 569.654 299.947 640.445C410.668 711.236 539.873 747.572 671.225 744.858C726.542 743.716 781.194 735.669 833.975 721.111C954.514 687.864 979.845 542.023 908.251 439.418L849.952 355.865C810.556 299.405 730.669 290.31 661.883 291.731C620.063 292.594 578.927 281.026 543.676 258.488C508.425 235.949 480.642 203.454 463.841 165.11C436.206 102.041 394.372 33.3123 326.63 21.2732L226.384 3.45733Z" fill="#F1582E"/>
</svg>
