<svg width="1440" height="2450" viewBox="0 0 1440 2450" fill="none" xmlns="http://www.w3.org/2000/svg">
<g clip-path="url(#clip0)">
<path d="M210.147 18.7811C211.045 16.0172 214.955 16.0172 215.853 18.7812L218.613 27.2746C219.014 28.5106 220.166 29.3475 221.466 29.3475H230.397C233.303 29.3475 234.511 33.0664 232.16 34.7746L224.935 40.0238C223.883 40.7877 223.444 42.1418 223.845 43.3779L226.605 51.8713C227.503 54.6353 224.339 56.9336 221.988 55.2254L214.763 49.9762C213.712 49.2123 212.288 49.2123 211.237 49.9762L204.012 55.2254C201.661 56.9336 198.497 54.6353 199.395 51.8713L202.155 43.3779C202.556 42.1418 202.117 40.7877 201.065 40.0238L193.84 34.7746C191.489 33.0664 192.697 29.3475 195.603 29.3475H204.534C205.834 29.3475 206.986 28.5106 207.387 27.2746L210.147 18.7811Z" fill="white"/>
<circle cx="75" cy="122" r="17" fill="white"/>
<rect x="161" y="171" width="33" height="33" rx="5" fill="white"/>
<path opacity="0.91" d="M32.2529 47.9647C29.7111 49.3736 26.8513 46.7068 28.0795 44.0729L30.0482 39.851C30.5975 38.6731 30.3258 37.2754 29.3753 36.389L25.9683 33.212C23.8429 31.23 25.4954 27.6861 28.3799 28.0403L33.0037 28.608C34.2937 28.7664 35.5389 28.0761 36.0882 26.8982L38.0569 22.6763C39.2851 20.0424 43.1662 20.5189 43.7207 23.3717L44.6096 27.9445C44.8576 29.2203 45.8989 30.1913 47.1889 30.3497L51.8126 30.9175C54.6971 31.2716 55.4432 35.11 52.9014 36.519L48.8271 38.7774C47.6903 39.4075 47.0886 40.6979 47.3366 41.9737L48.2255 46.5466C48.78 49.3993 45.36 51.2951 43.2346 49.313L39.8276 46.136C38.8771 45.2496 37.4639 45.0761 36.3272 45.7062L32.2529 47.9647Z" fill="white"/>
<path opacity="0.96" d="M333.073 37.7425C330.36 38.784 327.899 35.7451 329.482 33.3078L330.468 31.7895C331.176 30.6995 331.102 29.2777 330.284 28.2676L329.144 26.8607C327.315 24.6022 329.445 21.3228 332.252 22.0749L334.001 22.5435C335.256 22.8799 336.586 22.3696 337.293 21.2796L338.279 19.7613C339.862 17.324 343.639 18.336 343.791 21.2382L343.886 23.0461C343.954 24.344 344.85 25.4505 346.106 25.7869L347.854 26.2555C350.661 27.0077 350.866 30.9125 348.153 31.954L346.463 32.6028C345.249 33.0686 344.474 34.2626 344.542 35.5605L344.637 37.3685C344.789 40.2706 341.138 41.6719 339.309 39.4134L338.17 38.0065C337.352 36.9964 335.977 36.6279 334.764 37.0937L333.073 37.7425Z" fill="white"/>
<circle opacity="0.8" cx="470.548" cy="49.5482" r="11.56" transform="rotate(63 470.548 49.5482)" fill="white"/>
<path opacity="0.81" d="M892.942 166.428C895.068 168.41 893.415 171.954 890.531 171.6L885.503 170.983C884.213 170.824 882.968 171.514 882.419 172.692L880.278 177.283C879.05 179.917 875.169 179.44 874.614 176.588L873.648 171.615C873.4 170.34 872.358 169.369 871.068 169.21L866.041 168.593C863.156 168.239 862.41 164.4 864.952 162.991L869.382 160.536C870.519 159.906 871.121 158.615 870.873 157.339L869.906 152.367C869.352 149.514 872.772 147.619 874.897 149.601L878.602 153.055C879.552 153.942 880.965 154.115 882.102 153.485L886.532 151.029C889.074 149.62 891.934 152.287 890.706 154.921L888.565 159.512C888.016 160.69 888.287 162.087 889.238 162.974L892.942 166.428Z" fill="white"/>
<rect opacity="0.96" x="799" y="79" width="25.08" height="25.08" rx="5" transform="rotate(-108 799 79)" fill="white"/>
<path opacity="0.74" d="M1060.52 40.0133C1061.82 42.804 1059.62 45.9569 1056.55 45.6886L1034.12 43.7261C1031.05 43.4577 1029.42 39.9694 1031.19 37.447L1044.1 19.0025C1045.87 16.4801 1049.7 16.8156 1051.01 19.6063L1060.52 40.0133Z" fill="white"/>
<path opacity="0.74" d="M925.867 61.5799C924.733 64.4429 920.926 65.0055 919.013 62.5925L905.025 44.9475C903.112 42.5345 904.529 38.9557 907.575 38.5056L929.85 35.2145C932.896 34.7644 935.287 37.7806 934.154 40.6437L925.867 61.5799Z" fill="white"/>
<circle opacity="0.96" cx="1176.71" cy="46.7061" r="18.19" transform="rotate(85 1176.71 46.7061)" fill="white"/>
<path opacity="0.94" d="M1348.25 14.4184C1351.28 13.8837 1353.76 16.8322 1352.7 19.7257L1340.26 53.9052C1339.21 56.7987 1335.42 57.467 1333.44 55.1082L1310.06 27.2449C1308.08 24.8861 1309.4 21.2692 1312.43 20.7345L1348.25 14.4184Z" fill="white"/>
<rect opacity="0.76" x="245" y="101.13" width="34.32" height="34.32" rx="5" transform="rotate(-38 245 101.13)" fill="white"/>
<circle opacity="0.84" cx="322.728" cy="172.728" r="18.19" transform="rotate(-61 322.728 172.728)" fill="white"/>
<rect opacity="0.96" x="387.46" y="80" width="34.32" height="34.32" rx="5" transform="rotate(16 387.46 80)" fill="white"/>
<path opacity="0.76" d="M498.586 232.966C495.952 231.738 496.429 227.857 499.281 227.303L501.059 226.957C502.334 226.709 503.305 225.668 503.464 224.378L503.684 222.581C504.039 219.696 507.877 218.95 509.286 221.492L510.164 223.076C510.794 224.212 512.084 224.814 513.36 224.566L515.137 224.221C517.99 223.666 519.886 227.086 517.904 229.211L516.669 230.535C515.782 231.486 515.609 232.899 516.239 234.036L517.117 235.619C518.526 238.161 515.859 241.021 513.225 239.793L511.584 239.028C510.406 238.478 509.009 238.75 508.122 239.7L506.888 241.025C504.906 243.15 501.362 241.497 501.716 238.613L501.937 236.816C502.095 235.526 501.405 234.281 500.227 233.731L498.586 232.966Z" fill="white"/>
<path opacity="0.9" d="M669.608 26.526C672.552 27.4262 673.418 31.1766 671.166 33.2766L646.781 56.0158C644.529 58.1158 640.849 56.9904 640.156 53.9902L632.656 21.5027C631.963 18.5025 634.778 15.8775 637.723 16.7777L669.608 26.526Z" fill="white"/>
<circle opacity="0.94" cx="997.687" cy="127.687" r="13.94" transform="rotate(-42 997.687 127.687)" fill="white"/>
<rect opacity="0.85" x="1248" y="151.75" width="34.98" height="34.98" rx="5" transform="rotate(-126 1248 151.75)" fill="white"/>
<path opacity="0.88" d="M1390 142.698C1392.22 144.566 1390.76 148.192 1387.86 147.989L1386.87 147.919C1385.57 147.829 1384.36 148.583 1383.88 149.788L1383.5 150.712C1382.41 153.407 1378.51 153.134 1377.81 150.314L1377.57 149.347C1377.25 148.086 1376.16 147.171 1374.87 147.08L1373.87 147.011C1370.97 146.808 1370.03 143.014 1372.49 141.474L1373.34 140.946C1374.44 140.257 1374.97 138.937 1374.66 137.676L1374.42 136.709C1373.71 133.889 1377.03 131.817 1379.26 133.685L1380.02 134.325C1381.02 135.161 1382.44 135.26 1383.54 134.571L1384.38 134.043C1386.85 132.503 1389.84 135.017 1388.75 137.711L1388.38 138.635C1387.89 139.84 1388.24 141.222 1389.23 142.057L1390 142.698Z" fill="white"/>
<rect opacity="0.78" x="60" y="232.5" width="33.66" height="33.66" rx="5" transform="rotate(105 60 232.5)" fill="white"/>
<path opacity="0.77" d="M186.669 240.428C189.308 242.014 189.241 245.863 186.548 247.355L164.582 259.531C161.889 261.024 158.59 259.042 158.643 255.963L159.082 230.852C159.135 227.773 162.502 225.907 165.141 227.493L186.669 240.428Z" fill="white"/>
<rect opacity="0.86" x="523" y="126.066" width="27.72" height="27.72" rx="5" transform="rotate(-38 523 126.066)" fill="white"/>
<path opacity="0.72" d="M628.749 209.279C627.851 206.515 631.014 204.217 633.365 205.925L637.134 208.663C638.185 209.427 639.609 209.427 640.661 208.663L644.429 205.925C646.781 204.217 649.944 206.515 649.046 209.279L647.606 213.71C647.205 214.946 647.645 216.3 648.696 217.064L652.465 219.802C654.816 221.51 653.608 225.229 650.702 225.229L646.043 225.229C644.743 225.229 643.592 226.066 643.19 227.302L641.75 231.732C640.852 234.496 636.942 234.496 636.044 231.732L634.605 227.302C634.203 226.066 633.051 225.229 631.751 225.229L627.093 225.229C624.187 225.229 622.978 221.51 625.33 219.802L629.098 217.064C630.15 216.3 630.59 214.946 630.188 213.71L628.749 209.279Z" fill="white"/>
<path opacity="0.87" d="M754.82 182.942C751.927 181.889 751.258 178.099 753.617 176.119L771.198 161.368C773.557 159.388 777.173 160.705 777.708 163.737L781.693 186.338C782.228 189.371 779.279 191.845 776.386 190.792L754.82 182.942Z" fill="white"/>
<rect opacity="0.96" x="1029" y="233.5" width="24.75" height="24.75" rx="5" transform="rotate(-115 1029 233.5)" fill="white"/>
<rect opacity="0.92" x="1156.99" y="172" width="34.32" height="34.32" rx="5" transform="rotate(74 1156.99 172)" fill="white"/>
<circle cx="1284.99" cy="218.215" r="10.2" transform="rotate(-143 1284.99 218.215)" fill="white"/>
<path d="M88.241 328.398C91.3085 328.666 92.9351 332.154 91.169 334.677L75.2736 357.378C73.5074 359.9 69.6731 359.565 68.3717 356.774L56.6598 331.657C55.3585 328.867 57.5662 325.714 60.6336 325.982L88.241 328.398Z" fill="white"/>
<path opacity="0.87" d="M248.543 294.54C247.454 291.845 250.45 289.332 252.914 290.872L253.759 291.4C254.862 292.088 256.282 291.989 257.277 291.154L258.041 290.513C260.267 288.645 263.583 290.717 262.88 293.537L262.639 294.504C262.325 295.765 262.858 297.085 263.96 297.774L264.805 298.302C267.27 299.842 266.324 303.636 263.425 303.839L262.431 303.908C261.134 303.999 260.044 304.914 259.729 306.175L259.488 307.142C258.785 309.962 254.884 310.235 253.796 307.541L253.422 306.616C252.935 305.411 251.728 304.657 250.431 304.748L249.437 304.817C246.538 305.02 245.073 301.394 247.299 299.526L248.063 298.886C249.059 298.05 249.403 296.669 248.916 295.464L248.543 294.54Z" fill="white"/>
<path opacity="0.86" d="M368.036 227C369.576 224.333 373.425 224.333 374.964 227L389.254 251.75C390.793 254.417 388.869 257.75 385.789 257.75H357.211C354.131 257.75 352.207 254.417 353.746 251.75L368.036 227Z" fill="white"/>
<path opacity="0.92" d="M707.056 286.487C705.828 283.853 708.687 281.186 711.229 282.595L714.414 284.361C715.551 284.991 716.964 284.817 717.914 283.931L720.577 281.447C722.703 279.465 726.123 281.361 725.568 284.214L724.873 287.788C724.625 289.064 725.227 290.355 726.364 290.985L729.549 292.75C732.09 294.159 731.344 297.997 728.46 298.351L724.846 298.795C723.556 298.954 722.514 299.925 722.266 301.2L721.572 304.775C721.017 307.628 717.136 308.104 715.908 305.47L714.369 302.17C713.82 300.992 712.574 300.302 711.284 300.46L707.67 300.904C704.786 301.258 703.133 297.714 705.259 295.732L707.922 293.249C708.872 292.363 709.144 290.965 708.595 289.787L707.056 286.487Z" fill="white"/>
<path opacity="0.74" d="M840.024 302.628C841.127 299.754 844.929 299.152 846.867 301.545L859.675 317.361C861.612 319.754 860.233 323.347 857.192 323.829L837.091 327.013C834.049 327.494 831.627 324.503 832.731 321.628L840.024 302.628Z" fill="white"/>
<path opacity="0.73" d="M959.746 256.261C957.621 254.279 959.273 250.735 962.158 251.089L966.176 251.582C967.466 251.741 968.711 251.05 969.26 249.873L970.971 246.204C972.199 243.57 976.08 244.046 976.635 246.899L977.407 250.873C977.655 252.149 978.696 253.12 979.986 253.278L984.004 253.771C986.889 254.126 987.635 257.964 985.093 259.373L981.553 261.336C980.416 261.966 979.814 263.256 980.062 264.532L980.835 268.506C981.389 271.358 977.969 273.254 975.844 271.272L972.883 268.511C971.933 267.625 970.519 267.451 969.383 268.081L965.842 270.044C963.3 271.453 960.44 268.786 961.669 266.152L963.379 262.483C963.929 261.306 963.657 259.908 962.707 259.022L959.746 256.261Z" fill="white"/>
<path opacity="0.92" d="M1106.36 283.691C1108.82 282.151 1111.82 284.664 1110.73 287.359L1106.62 297.525C1106.14 298.73 1106.48 300.112 1107.48 300.947L1115.88 307.995C1118.1 309.863 1116.64 313.489 1113.74 313.286L1102.8 312.521C1101.5 312.43 1100.3 313.185 1099.81 314.39L1095.7 324.556C1094.61 327.251 1090.71 326.978 1090.01 324.158L1087.36 313.519C1087.04 312.258 1085.95 311.343 1084.66 311.252L1073.72 310.487C1070.82 310.285 1069.87 306.49 1072.34 304.95L1081.64 299.14C1082.74 298.451 1083.27 297.131 1082.96 295.87L1080.3 285.231C1079.6 282.411 1082.92 280.339 1085.14 282.207L1093.54 289.255C1094.54 290.091 1095.96 290.19 1097.06 289.501L1106.36 283.691Z" fill="white"/>
<path opacity="0.85" d="M1375.9 285.071C1378.94 284.589 1381.36 287.581 1380.26 290.455L1372.66 310.264C1371.55 313.138 1367.75 313.74 1365.81 311.347L1352.46 294.858C1350.52 292.465 1351.9 288.872 1354.94 288.39L1375.9 285.071Z" fill="white"/>
<rect opacity="0.92" x="124" y="438.858" width="37.95" height="37.95" rx="5" transform="rotate(-86 124 438.858)" fill="white"/>
<path opacity="0.89" d="M249.92 374.636C252.046 372.654 255.466 374.55 254.911 377.403L252.703 388.765C252.455 390.041 253.056 391.331 254.193 391.962L264.317 397.573C266.859 398.982 266.113 402.821 263.228 403.175L251.739 404.585C250.449 404.744 249.408 405.715 249.16 406.991L246.951 418.353C246.397 421.206 242.516 421.682 241.287 419.049L236.396 408.558C235.846 407.38 234.601 406.69 233.311 406.848L221.822 408.259C218.938 408.613 217.285 405.069 219.411 403.087L227.876 395.193C228.827 394.306 229.098 392.909 228.549 391.731L223.657 381.24C222.429 378.606 225.289 375.94 227.831 377.349L237.954 382.96C239.091 383.59 240.504 383.417 241.455 382.531L249.92 374.636Z" fill="white"/>
<circle opacity="0.83" cx="430.89" cy="410.89" r="18.36" transform="rotate(95 430.89 410.89)" fill="white"/>
<rect opacity="0.95" x="590.358" y="342.315" width="27.06" height="27.06" rx="5" transform="rotate(-95 590.358 342.315)" fill="white"/>
<circle opacity="0.71" cx="807.047" cy="424.047" r="12.92" transform="rotate(54 807.047 424.047)" fill="white"/>
<circle opacity="0.75" cx="958.672" cy="377.672" r="16.32" transform="rotate(-81 958.672 377.672)" fill="white"/>
<path opacity="0.91" d="M1228.43 543.608C1231.21 542.758 1233.45 545.961 1231.7 548.282L1230.61 549.728C1229.83 550.766 1229.8 552.19 1230.55 553.254L1231.59 554.737C1233.25 557.118 1230.9 560.241 1228.15 559.295L1226.44 558.705C1225.21 558.282 1223.85 558.698 1223.07 559.736L1221.98 561.182C1220.23 563.503 1216.53 562.23 1216.58 559.324L1216.62 557.514C1216.64 556.215 1215.82 555.049 1214.59 554.625L1212.88 554.036C1210.13 553.09 1210.2 549.18 1212.98 548.331L1214.71 547.801C1215.95 547.421 1216.81 546.284 1216.83 544.985L1216.87 543.175C1216.92 540.269 1220.66 539.126 1222.32 541.506L1223.36 542.989C1224.11 544.054 1225.45 544.517 1226.7 544.137L1228.43 543.608Z" fill="white"/>
<path opacity="0.78" d="M1240.58 294.868C1240.18 297.746 1236.33 298.425 1234.96 295.859L1230.77 287.974C1230.16 286.826 1228.88 286.202 1227.6 286.428L1218.81 287.979C1215.94 288.483 1214.11 285.031 1216.13 282.94L1222.33 276.516C1223.23 275.581 1223.43 274.171 1222.82 273.024L1218.63 265.139C1217.27 262.573 1219.98 259.76 1222.59 261.034L1230.62 264.949C1231.79 265.518 1233.19 265.271 1234.09 264.336L1240.3 257.912C1242.32 255.822 1245.83 257.536 1245.43 260.414L1244.18 269.257C1244 270.544 1244.67 271.801 1245.84 272.371L1253.87 276.286C1256.48 277.56 1255.93 281.432 1253.07 281.937L1244.28 283.488C1243 283.713 1242.01 284.737 1241.83 286.025L1240.58 294.868Z" fill="white"/>
<circle opacity="0.72" cx="84.5121" cy="488.512" r="13.09" transform="rotate(-45 84.5121 488.512)" fill="white"/>
<circle opacity="0.92" cx="280.39" cy="486.756" r="10.2" transform="rotate(-41 280.39 486.756)" fill="white"/>
<rect opacity="0.82" x="367" y="475.75" width="36.96" height="36.96" rx="5" transform="rotate(-179 367 475.75)" fill="white"/>
<rect opacity="0.9" x="580.933" y="476" width="37.95" height="37.95" rx="5" transform="rotate(67 580.933 476)" fill="white"/>
<rect opacity="0.85" x="845.722" y="600.943" width="33.99" height="33.99" rx="5" transform="rotate(177 845.722 600.943)" fill="white"/>
<circle opacity="0.86" cx="922.275" cy="475.399" r="13.43" transform="rotate(-159 922.275 475.399)" fill="white"/>
<path opacity="0.95" d="M1096.97 468.417C1094.71 470.246 1091.43 468.116 1092.19 465.309L1092.87 462.774C1093.2 461.519 1092.69 460.19 1091.6 459.482L1089.4 458.053C1086.96 456.47 1087.98 452.693 1090.88 452.541L1093.5 452.404C1094.8 452.335 1095.9 451.439 1096.24 450.184L1096.92 447.649C1097.67 444.842 1101.58 444.638 1102.62 447.351L1103.56 449.801C1104.02 451.014 1105.22 451.789 1106.52 451.721L1109.14 451.584C1112.04 451.432 1113.44 455.082 1111.18 456.911L1109.14 458.563C1108.13 459.381 1107.76 460.756 1108.23 461.969L1109.17 464.419C1110.21 467.132 1107.17 469.593 1104.73 468.01L1102.53 466.581C1101.44 465.873 1100.02 465.948 1099.01 466.766L1096.97 468.417Z" fill="white"/>
<circle opacity="0.7" cx="1374.48" cy="446.482" r="17.68" transform="rotate(-170 1374.48 446.482)" fill="white"/>
<circle opacity="0.99" cx="135.77" cy="585.596" r="18.02" transform="rotate(20 135.77 585.596)" fill="white"/>
<circle opacity="0.88" cx="542.316" cy="388.316" r="12.07" transform="rotate(78 542.316 388.316)" fill="white"/>
<path opacity="0.85" d="M463.172 574.934C460.278 575.987 457.33 573.513 457.864 570.481L462 547.027C462.535 543.994 466.152 542.678 468.51 544.657L486.754 559.966C489.113 561.945 488.445 565.735 485.551 566.789L463.172 574.934Z" fill="white"/>
<path opacity="0.97" d="M672.401 404.66C675.472 404.445 677.625 407.636 676.275 410.404L662.038 439.593C660.688 442.361 656.849 442.629 655.127 440.076L636.967 413.152C635.245 410.6 636.932 407.14 640.004 406.925L672.401 404.66Z" fill="white"/>
<path opacity="0.96" d="M743.739 519.265C746.614 520.368 747.216 524.17 744.823 526.108L727.997 539.733C725.604 541.671 722.011 540.291 721.529 537.25L718.142 515.866C717.66 512.825 720.652 510.402 723.526 511.506L743.739 519.265Z" fill="white"/>
<path opacity="0.75" d="M1020.16 562.421C1020.11 565.499 1016.74 567.365 1014.1 565.779L998.882 556.636C996.242 555.05 996.31 551.201 999.003 549.709L1014.53 541.102C1017.22 539.609 1020.52 541.591 1020.47 544.67L1020.16 562.421Z" fill="white"/>
<path opacity="0.87" d="M1209.25 415.566C1207.99 412.753 1210.26 409.639 1213.32 409.961L1244.76 413.265C1247.82 413.587 1249.38 417.103 1247.57 419.594L1228.99 445.167C1227.18 447.658 1223.36 447.256 1222.1 444.443L1209.25 415.566Z" fill="white"/>
<path opacity="0.97" d="M1386.98 557.926C1387.73 554.938 1391.43 553.877 1393.64 556.016L1402.68 564.739C1404.89 566.878 1403.96 570.613 1401 571.462L1388.93 574.923C1385.97 575.772 1383.2 573.098 1383.95 570.11L1386.98 557.926Z" fill="white"/>
<circle opacity="0.87" cx="59.7702" cy="609.313" r="19.89" transform="rotate(18 59.7702 609.313)" fill="white"/>
<path opacity="0.74" d="M231.81 602.221C234.709 602.018 236.174 605.643 233.948 607.511L229.288 611.421C228.293 612.257 227.948 613.638 228.435 614.843L230.714 620.483C231.802 623.177 228.807 625.691 226.342 624.151L221.184 620.927C220.082 620.239 218.661 620.338 217.666 621.173L213.006 625.083C210.78 626.951 207.464 624.879 208.167 622.059L209.639 616.158C209.953 614.896 209.42 613.576 208.318 612.888L203.159 609.664C200.695 608.124 201.641 604.33 204.54 604.128L210.607 603.703C211.904 603.613 212.995 602.697 213.309 601.436L214.781 595.535C215.484 592.715 219.384 592.442 220.473 595.137L222.751 600.776C223.238 601.981 224.446 602.736 225.742 602.645L231.81 602.221Z" fill="white"/>
<path opacity="0.83" d="M349.657 618.691C350.792 621.366 347.841 623.932 345.35 622.435L343.798 621.502C342.684 620.833 341.266 620.957 340.285 621.81L338.919 622.998C336.725 624.904 333.374 622.89 334.027 620.059L334.435 618.295C334.727 617.028 334.171 615.718 333.057 615.048L331.505 614.116C329.014 612.619 329.893 608.809 332.788 608.556L334.592 608.398C335.887 608.285 336.961 607.351 337.254 606.084L337.661 604.32C338.315 601.489 342.21 601.148 343.345 603.823L344.053 605.489C344.561 606.686 345.781 607.419 347.076 607.306L348.879 607.148C351.774 606.895 353.302 610.494 351.109 612.401L349.743 613.588C348.762 614.441 348.441 615.828 348.949 617.025L349.657 618.691Z" fill="white"/>
<circle opacity="0.94" cx="556.508" cy="642.596" r="10.2" transform="rotate(39 556.508 642.596)" fill="white"/>
<rect opacity="0.98" x="711.735" y="615.599" width="24.75" height="24.75" rx="5" transform="rotate(-178 711.735 615.599)" fill="white"/>
<path opacity="0.84" d="M959.405 597.291C956.393 597.931 953.818 595.071 954.769 592.142L958.784 579.788C959.735 576.859 963.5 576.059 965.56 578.347L974.253 588.001C976.313 590.289 975.124 593.95 972.112 594.59L959.405 597.291Z" fill="white"/>
<circle opacity="0.88" cx="1085.32" cy="621.15" r="20.4" transform="rotate(-178 1085.32 621.15)" fill="white"/>
<path opacity="0.9" d="M1343.53 649.992C1344.68 652.847 1342.31 655.88 1339.26 655.451L1316.11 652.197C1313.06 651.769 1311.61 648.2 1313.51 645.773L1327.91 627.348C1329.8 624.921 1333.61 625.457 1334.77 628.312L1343.53 649.992Z" fill="white"/>
<rect opacity="0.92" width="37.95" height="37.95" rx="5" transform="matrix(0.0697565 0.997564 0.997564 -0.0697565 124 828.392)" fill="white"/>
<path opacity="0.89" d="M249.92 892.614C252.046 894.596 255.466 892.7 254.911 889.847L252.703 878.485C252.455 877.209 253.056 875.919 254.193 875.288L264.317 869.677C266.859 868.268 266.113 864.429 263.228 864.075L251.739 862.665C250.449 862.506 249.408 861.535 249.16 860.259L246.951 848.897C246.397 846.044 242.516 845.568 241.287 848.201L236.396 858.692C235.846 859.87 234.601 860.56 233.311 860.402L221.822 858.991C218.938 858.637 217.285 862.181 219.411 864.163L227.876 872.057C228.827 872.944 229.098 874.341 228.549 875.519L223.657 886.01C222.429 888.644 225.289 891.31 227.831 889.901L237.954 884.29C239.091 883.66 240.504 883.833 241.455 884.719L249.92 892.614Z" fill="white"/>
<circle opacity="0.71" r="12.92" transform="matrix(0.587785 -0.809017 -0.809017 -0.587785 807.047 843.203)" fill="white"/>
<circle opacity="0.75" r="16.32" transform="matrix(0.156434 0.987688 0.987688 -0.156434 949.672 879.672)" fill="white"/>
<path opacity="0.91" d="M1197.43 695.087C1200.21 695.937 1202.45 692.734 1200.7 690.413L1199.61 688.967C1198.83 687.929 1198.8 686.506 1199.55 685.441L1200.59 683.958C1202.25 681.577 1199.9 678.454 1197.15 679.401L1195.44 679.99C1194.21 680.413 1192.85 679.997 1192.07 678.959L1190.98 677.513C1189.23 675.192 1185.53 676.465 1185.58 679.371L1185.62 681.181C1185.64 682.48 1184.82 683.647 1183.59 684.07L1181.88 684.659C1179.13 685.605 1179.2 689.515 1181.98 690.365L1183.71 690.894C1184.95 691.274 1185.81 692.411 1185.83 693.711L1185.87 695.521C1185.92 698.426 1189.66 699.57 1191.32 697.189L1192.36 695.706C1193.11 694.642 1194.45 694.178 1195.7 694.558L1197.43 695.087Z" fill="white"/>
<circle opacity="0.72" r="13.09" transform="matrix(0.707107 0.707107 0.707107 -0.707107 84.5121 778.738)" fill="white"/>
<circle opacity="0.92" r="10.2" transform="matrix(0.75471 0.656059 0.656059 -0.75471 280.39 780.494)" fill="white"/>
<circle opacity="0.92" r="10.2" transform="matrix(0.75471 0.656059 0.656059 -0.75471 33.3898 728.39)" fill="white"/>
<rect opacity="0.82" width="36.96" height="36.96" rx="5" transform="matrix(-0.999848 0.0174524 0.0174524 0.999848 376.954 811)" fill="white"/>
<rect opacity="0.82" width="36.96" height="36.96" rx="5" transform="matrix(-0.999848 0.0174524 0.0174524 0.999848 314.954 662)" fill="white"/>
<rect opacity="0.82" width="36.96" height="36.96" rx="5" transform="matrix(-0.999848 0.0174524 0.0174524 0.999848 202.954 726)" fill="white"/>
<rect opacity="0.9" width="37.95" height="37.95" rx="5" transform="matrix(0.390731 -0.920505 -0.920505 -0.390731 522.933 798.761)" fill="white"/>
<circle opacity="0.86" r="13.43" transform="matrix(-0.93358 0.358368 0.358368 0.93358 936.351 760.351)" fill="white"/>
<path opacity="0.95" d="M1077.38 779.333C1075.12 777.504 1071.84 779.634 1072.59 782.441L1073.27 784.976C1073.61 786.231 1073.1 787.56 1072.01 788.268L1069.81 789.697C1067.37 791.28 1068.38 795.057 1071.28 795.209L1073.9 795.346C1075.2 795.415 1076.31 796.311 1076.65 797.566L1077.32 800.101C1078.08 802.908 1081.98 803.112 1083.02 800.399L1083.96 797.949C1084.43 796.736 1085.62 795.961 1086.92 796.029L1089.54 796.166C1092.44 796.318 1093.85 792.668 1091.59 790.839L1089.55 789.187C1088.54 788.369 1088.17 786.994 1088.63 785.781L1089.58 783.331C1090.62 780.618 1087.58 778.157 1085.14 779.74L1082.94 781.169C1081.85 781.877 1080.43 781.802 1079.42 780.984L1077.38 779.333Z" fill="white"/>
<circle opacity="0.7" r="17.68" transform="matrix(-0.984808 0.173648 0.173648 0.984808 1374.48 820.768)" fill="white"/>
<circle opacity="0.88" r="12.07" transform="matrix(0.207912 -0.978148 -0.978148 -0.207912 635.316 723.316)" fill="white"/>
<path opacity="0.85" d="M454.172 666.35C451.278 665.297 448.33 667.771 448.864 670.804L453 694.257C453.535 697.29 457.152 698.606 459.51 696.627L477.754 681.319C480.113 679.339 479.445 675.549 476.551 674.496L454.172 666.35Z" fill="white"/>
<path opacity="0.85" d="M391.172 723.35C388.278 722.297 385.33 724.771 385.864 727.804L390 751.257C390.535 754.29 394.152 755.606 396.51 753.627L414.754 738.319C417.113 736.339 416.445 732.549 413.551 731.496L391.172 723.35Z" fill="white"/>
<path opacity="0.97" d="M672.401 862.59C675.472 862.805 677.625 859.614 676.275 856.846L662.038 827.657C660.688 824.889 656.849 824.621 655.127 827.174L636.967 854.098C635.245 856.65 636.932 860.11 640.004 860.325L672.401 862.59Z" fill="white"/>
<path opacity="0.96" d="M743.739 747.985C746.614 746.882 747.216 743.08 744.823 741.142L727.997 727.517C725.604 725.579 722.011 726.959 721.529 730L718.142 751.384C717.66 754.425 720.652 756.848 723.526 755.744L743.739 747.985Z" fill="white"/>
<path opacity="0.75" d="M997.778 663.775C997.725 660.696 994.358 658.83 991.719 660.416L976.501 669.56C973.862 671.146 973.929 674.994 976.622 676.487L992.149 685.094C994.843 686.587 998.142 684.604 998.088 681.526L997.778 663.775Z" fill="white"/>
<path opacity="0.87" d="M1235.25 811.766C1233.99 814.579 1236.26 817.693 1239.32 817.371L1270.76 814.067C1273.82 813.745 1275.38 810.229 1273.57 807.738L1254.99 782.165C1253.18 779.674 1249.36 780.076 1248.1 782.889L1235.25 811.766Z" fill="white"/>
<path opacity="0.97" d="M1386.98 709.324C1387.73 712.312 1391.43 713.373 1393.64 711.234L1402.68 702.511C1404.89 700.372 1403.96 696.637 1401 695.788L1388.93 692.327C1385.97 691.478 1383.2 694.152 1383.95 697.14L1386.98 709.324Z" fill="white"/>
<path opacity="0.84" d="M852.148 685.959C849.137 685.319 846.561 688.179 847.513 691.108L851.527 703.462C852.478 706.391 856.243 707.191 858.304 704.903L866.996 695.249C869.056 692.961 867.867 689.3 864.855 688.66L852.148 685.959Z" fill="white"/>
<circle r="17" transform="matrix(1 0 0 -1 75 1145.25)" fill="white"/>
<rect width="33" height="33" rx="5" transform="matrix(1 0 0 -1 161 1096.25)" fill="white"/>
<path opacity="0.81" d="M892.942 1100.82C895.068 1098.84 893.415 1095.3 890.531 1095.65L885.503 1096.27C884.213 1096.43 882.968 1095.74 882.419 1094.56L880.278 1089.97C879.05 1087.33 875.169 1087.81 874.614 1090.66L873.648 1095.63C873.4 1096.91 872.358 1097.88 871.068 1098.04L866.041 1098.66C863.156 1099.01 862.41 1102.85 864.952 1104.26L869.382 1106.71C870.519 1107.34 871.121 1108.63 870.873 1109.91L869.906 1114.88C869.352 1117.74 872.772 1119.63 874.897 1117.65L878.602 1114.19C879.552 1113.31 880.965 1113.14 882.102 1113.77L886.532 1116.22C889.074 1117.63 891.934 1114.96 890.706 1112.33L888.565 1107.74C888.016 1106.56 888.287 1105.16 889.238 1104.28L892.942 1100.82Z" fill="white"/>
<circle opacity="0.84" r="18.19" transform="matrix(0.48481 0.87462 0.87462 -0.48481 301.728 1095.52)" fill="white"/>
<rect opacity="0.96" width="34.32" height="34.32" rx="5" transform="matrix(0.961262 -0.275637 -0.275637 -0.961262 419.46 1153.45)" fill="white"/>
<path opacity="0.76" d="M498.586 1034.28C495.952 1035.51 496.429 1039.39 499.281 1039.95L501.059 1040.29C502.334 1040.54 503.305 1041.58 503.464 1042.87L503.684 1044.67C504.039 1047.55 507.877 1048.3 509.286 1045.76L510.164 1044.17C510.794 1043.04 512.084 1042.44 513.36 1042.68L515.137 1043.03C517.99 1043.58 519.886 1040.16 517.904 1038.04L516.669 1036.71C515.782 1035.76 515.609 1034.35 516.239 1033.21L517.117 1031.63C518.526 1029.09 515.859 1026.23 513.225 1027.46L511.584 1028.22C510.406 1028.77 509.009 1028.5 508.122 1027.55L506.888 1026.23C504.906 1024.1 501.362 1025.75 501.716 1028.64L501.937 1030.43C502.095 1031.72 501.405 1032.97 500.227 1033.52L498.586 1034.28Z" fill="white"/>
<circle opacity="0.94" r="13.94" transform="matrix(0.743145 0.669131 0.669131 -0.743145 938.687 1156.69)" fill="white"/>
<rect opacity="0.85" width="34.98" height="34.98" rx="5" transform="matrix(-0.587785 0.809017 0.809017 0.587785 1226.56 1095)" fill="white"/>
<path opacity="0.88" d="M1390 1124.55C1392.22 1122.68 1390.76 1119.06 1387.86 1119.26L1386.87 1119.33C1385.57 1119.42 1384.36 1118.67 1383.88 1117.46L1383.5 1116.54C1382.41 1113.84 1378.51 1114.12 1377.81 1116.94L1377.57 1117.9C1377.25 1119.16 1376.16 1120.08 1374.87 1120.17L1373.87 1120.24C1370.97 1120.44 1370.03 1124.24 1372.49 1125.78L1373.34 1126.3C1374.44 1126.99 1374.97 1128.31 1374.66 1129.57L1374.42 1130.54C1373.71 1133.36 1377.03 1135.43 1379.26 1133.57L1380.02 1132.92C1381.02 1132.09 1382.44 1131.99 1383.54 1132.68L1384.38 1133.21C1386.85 1134.75 1389.84 1132.23 1388.75 1129.54L1388.38 1128.61C1387.89 1127.41 1388.24 1126.03 1389.23 1125.19L1390 1124.55Z" fill="white"/>
<path opacity="0.88" d="M1282 904.771C1284.22 902.903 1282.76 899.278 1279.86 899.48L1278.87 899.55C1277.57 899.641 1276.36 898.886 1275.88 897.681L1275.5 896.757C1274.41 894.062 1270.51 894.335 1269.81 897.155L1269.57 898.122C1269.25 899.383 1268.16 900.298 1266.87 900.389L1265.87 900.458C1262.97 900.661 1262.03 904.455 1264.49 905.995L1265.34 906.523C1266.44 907.212 1266.97 908.532 1266.66 909.793L1266.42 910.76C1265.71 913.58 1269.03 915.652 1271.26 913.784L1272.02 913.144C1273.02 912.308 1274.44 912.209 1275.54 912.898L1276.38 913.426C1278.85 914.966 1281.84 912.452 1280.75 909.758L1280.38 908.834C1279.89 907.629 1280.24 906.247 1281.23 905.412L1282 904.771Z" fill="white"/>
<rect opacity="0.78" width="33.66" height="33.66" rx="5" transform="matrix(-0.258819 -0.965926 -0.965926 0.258819 60 1034.75)" fill="white"/>
<path opacity="0.77" d="M186.669 1026.82C189.308 1025.24 189.241 1021.39 186.548 1019.89L164.582 1007.72C161.889 1006.23 158.59 1008.21 158.643 1011.29L159.082 1036.4C159.135 1039.48 162.502 1041.34 165.141 1039.76L186.669 1026.82Z" fill="white"/>
<rect opacity="0.86" width="27.72" height="27.72" rx="5" transform="matrix(0.788011 0.615662 0.615662 -0.788011 557 1142.84)" fill="white"/>
<path opacity="0.72" d="M628.749 1057.97C627.851 1060.73 631.014 1063.03 633.365 1061.32L637.134 1058.59C638.185 1057.82 639.609 1057.82 640.661 1058.59L644.429 1061.32C646.781 1063.03 649.944 1060.73 649.046 1057.97L647.606 1053.54C647.205 1052.3 647.645 1050.95 648.696 1050.19L652.465 1047.45C654.816 1045.74 653.608 1042.02 650.702 1042.02L646.043 1042.02C644.743 1042.02 643.592 1041.18 643.19 1039.95L641.75 1035.52C640.852 1032.75 636.942 1032.75 636.044 1035.52L634.605 1039.95C634.203 1041.18 633.051 1042.02 631.751 1042.02L627.093 1042.02C624.187 1042.02 622.978 1045.74 625.33 1047.45L629.098 1050.19C630.15 1050.95 630.59 1052.3 630.188 1053.54L628.749 1057.97Z" fill="white"/>
<path opacity="0.87" d="M733.2 1074.56C730.307 1075.61 729.639 1079.4 731.997 1081.38L749.578 1096.13C751.937 1098.11 755.554 1096.8 756.088 1093.76L760.073 1071.16C760.608 1068.13 757.66 1065.66 754.766 1066.71L733.2 1074.56Z" fill="white"/>
<rect opacity="0.96" width="24.75" height="24.75" rx="5" transform="matrix(-0.422618 0.906308 0.906308 0.422618 1029 1033.75)" fill="white"/>
<rect opacity="0.92" width="34.32" height="34.32" rx="5" transform="matrix(0.275637 -0.961262 -0.961262 -0.275637 1156.99 1095.25)" fill="white"/>
<circle r="10.2" transform="matrix(-0.798635 0.601815 0.601815 0.798635 1284.99 1049.03)" fill="white"/>
<circle r="10.2" transform="matrix(-0.798635 0.601815 0.601815 0.798635 1099.28 1147.28)" fill="white"/>
<path d="M88.241 938.852C91.3085 938.584 92.9351 935.096 91.169 932.573L75.2736 909.872C73.5074 907.35 69.6731 907.685 68.3717 910.476L56.6598 935.593C55.3585 938.383 57.5662 941.536 60.6336 941.268L88.241 938.852Z" fill="white"/>
<path opacity="0.87" d="M248.543 972.71C247.454 975.405 250.45 977.918 252.914 976.378L253.759 975.85C254.862 975.162 256.282 975.261 257.277 976.096L258.041 976.737C260.267 978.605 263.583 976.533 262.88 973.713L262.639 972.746C262.325 971.485 262.858 970.165 263.96 969.476L264.805 968.948C267.27 967.408 266.324 963.614 263.425 963.411L262.431 963.342C261.134 963.251 260.044 962.336 259.729 961.075L259.488 960.108C258.785 957.288 254.884 957.015 253.796 959.709L253.422 960.634C252.935 961.839 251.728 962.593 250.431 962.502L249.437 962.433C246.538 962.23 245.073 965.856 247.299 967.724L248.063 968.364C249.059 969.2 249.403 970.581 248.916 971.786L248.543 972.71Z" fill="white"/>
<path opacity="0.86" d="M368.036 1040.25C369.576 1042.92 373.425 1042.92 374.964 1040.25L389.254 1015.5C390.793 1012.83 388.869 1009.5 385.789 1009.5H357.211C354.131 1009.5 352.207 1012.83 353.746 1015.5L368.036 1040.25Z" fill="white"/>
<path opacity="0.92" d="M705.056 956.07C703.828 958.704 706.687 961.371 709.229 959.962L712.414 958.197C713.551 957.567 714.964 957.74 715.914 958.626L718.577 961.11C720.703 963.092 724.123 961.196 723.568 958.343L722.873 954.769C722.625 953.493 723.227 952.203 724.364 951.573L727.549 949.807C730.09 948.398 729.344 944.56 726.46 944.206L722.846 943.762C721.556 943.604 720.514 942.633 720.266 941.357L719.572 937.782C719.017 934.93 715.136 934.453 713.908 937.087L712.369 940.387C711.82 941.565 710.574 942.255 709.284 942.097L705.67 941.653C702.786 941.299 701.133 944.843 703.259 946.825L705.922 949.308C706.872 950.195 707.144 951.592 706.595 952.77L705.056 956.07Z" fill="white"/>
<path opacity="0.74" d="M835.024 1003.64C836.127 1006.51 839.929 1007.11 841.867 1004.72L854.675 988.903C856.612 986.51 855.233 982.917 852.192 982.435L832.091 979.251C829.049 978.769 826.627 981.761 827.731 984.635L835.024 1003.64Z" fill="white"/>
<path opacity="0.73" d="M959.746 1010.99C957.621 1012.97 959.273 1016.52 962.158 1016.16L966.176 1015.67C967.466 1015.51 968.711 1016.2 969.26 1017.38L970.971 1021.05C972.199 1023.68 976.08 1023.2 976.635 1020.35L977.407 1016.38C977.655 1015.1 978.696 1014.13 979.986 1013.97L984.004 1013.48C986.889 1013.12 987.635 1009.29 985.093 1007.88L981.553 1005.91C980.416 1005.28 979.814 1003.99 980.062 1002.72L980.835 998.744C981.389 995.892 977.969 993.996 975.844 995.978L972.883 998.739C971.933 999.625 970.519 999.799 969.383 999.169L965.842 997.206C963.3 995.797 960.44 998.464 961.669 1001.1L963.379 1004.77C963.929 1005.94 963.657 1007.34 962.707 1008.23L959.746 1010.99Z" fill="white"/>
<path opacity="0.92" d="M1092.36 946.093C1094.82 947.633 1097.82 945.12 1096.73 942.425L1092.62 932.259C1092.14 931.054 1092.48 929.673 1093.48 928.837L1101.88 921.789C1104.1 919.921 1102.64 916.295 1099.74 916.498L1088.8 917.263C1087.5 917.354 1086.3 916.599 1085.81 915.394L1081.7 905.228C1080.61 902.533 1076.71 902.806 1076.01 905.626L1073.36 916.265C1073.04 917.526 1071.95 918.441 1070.66 918.532L1059.72 919.297C1056.82 919.499 1055.87 923.294 1058.34 924.834L1067.64 930.644C1068.74 931.333 1069.27 932.653 1068.96 933.914L1066.3 944.553C1065.6 947.373 1068.92 949.445 1071.14 947.577L1079.54 940.529C1080.54 939.694 1081.96 939.594 1083.06 940.283L1092.36 946.093Z" fill="white"/>
<path opacity="0.85" d="M1375.9 982.179C1378.94 982.661 1381.36 979.669 1380.26 976.795L1372.66 956.986C1371.55 954.112 1367.75 953.51 1365.81 955.903L1352.46 972.392C1350.52 974.785 1351.9 978.378 1354.94 978.86L1375.9 982.179Z" fill="white"/>
<circle opacity="0.83" r="18.36" transform="matrix(-0.0871557 -0.996195 -0.996195 0.0871557 375.89 915.89)" fill="white"/>
<rect opacity="0.95" width="27.06" height="27.06" rx="5" transform="matrix(-0.0871557 0.996195 0.996195 0.0871557 557.358 921)" fill="white"/>
<path opacity="0.78" d="M1240.58 972.382C1240.18 969.504 1236.33 968.825 1234.96 971.391L1230.77 979.276C1230.16 980.424 1228.88 981.048 1227.6 980.822L1218.81 979.271C1215.94 978.767 1214.11 982.219 1216.13 984.31L1222.33 990.734C1223.23 991.669 1223.43 993.079 1222.82 994.226L1218.63 1002.11C1217.27 1004.68 1219.98 1007.49 1222.59 1006.22L1230.62 1002.3C1231.79 1001.73 1233.19 1001.98 1234.09 1002.91L1240.3 1009.34C1242.32 1011.43 1245.83 1009.71 1245.43 1006.84L1244.18 997.993C1244 996.706 1244.67 995.449 1245.84 994.879L1253.87 990.964C1256.48 989.69 1255.93 985.818 1253.07 985.313L1244.28 983.762C1243 983.537 1242.01 982.513 1241.83 981.225L1240.58 972.382Z" fill="white"/>
<rect opacity="0.76" width="34.32" height="34.32" rx="5" transform="matrix(0.788011 0.615662 0.615662 -0.788011 214 1159.04)" fill="white"/>
<path d="M210.147 1243.78C211.045 1241.02 214.955 1241.02 215.853 1243.78L218.613 1252.27C219.014 1253.51 220.166 1254.35 221.466 1254.35H230.397C233.303 1254.35 234.511 1258.07 232.16 1259.77L224.935 1265.02C223.883 1265.79 223.444 1267.14 223.845 1268.38L226.605 1276.87C227.503 1279.64 224.339 1281.93 221.988 1280.23L214.763 1274.98C213.712 1274.21 212.288 1274.21 211.237 1274.98L204.012 1280.23C201.661 1281.93 198.497 1279.64 199.395 1276.87L202.155 1268.38C202.556 1267.14 202.117 1265.79 201.065 1265.02L193.84 1259.77C191.489 1258.07 192.697 1254.35 195.603 1254.35H204.534C205.834 1254.35 206.986 1253.51 207.387 1252.27L210.147 1243.78Z" fill="white"/>
<circle cx="75" cy="1347" r="17" fill="white"/>
<rect x="161" y="1396" width="33" height="33" rx="5" fill="white"/>
<path opacity="0.91" d="M32.2529 1272.96C29.7111 1274.37 26.8513 1271.71 28.0795 1269.07L30.0482 1264.85C30.5975 1263.67 30.3258 1262.28 29.3753 1261.39L25.9683 1258.21C23.8429 1256.23 25.4954 1252.69 28.3799 1253.04L33.0037 1253.61C34.2937 1253.77 35.5389 1253.08 36.0882 1251.9L38.0569 1247.68C39.2851 1245.04 43.1662 1245.52 43.7207 1248.37L44.6096 1252.94C44.8576 1254.22 45.8989 1255.19 47.1889 1255.35L51.8126 1255.92C54.6971 1256.27 55.4432 1260.11 52.9014 1261.52L48.8271 1263.78C47.6903 1264.41 47.0886 1265.7 47.3366 1266.97L48.2255 1271.55C48.78 1274.4 45.36 1276.3 43.2346 1274.31L39.8276 1271.14C38.8771 1270.25 37.4639 1270.08 36.3272 1270.71L32.2529 1272.96Z" fill="white"/>
<path opacity="0.96" d="M333.073 1262.74C330.36 1263.78 327.899 1260.75 329.482 1258.31L330.468 1256.79C331.176 1255.7 331.102 1254.28 330.284 1253.27L329.144 1251.86C327.315 1249.6 329.445 1246.32 332.252 1247.07L334.001 1247.54C335.256 1247.88 336.586 1247.37 337.293 1246.28L338.279 1244.76C339.862 1242.32 343.639 1243.34 343.791 1246.24L343.886 1248.05C343.954 1249.34 344.85 1250.45 346.106 1250.79L347.854 1251.26C350.661 1252.01 350.866 1255.91 348.153 1256.95L346.463 1257.6C345.249 1258.07 344.474 1259.26 344.542 1260.56L344.637 1262.37C344.789 1265.27 341.138 1266.67 339.309 1264.41L338.17 1263.01C337.352 1262 335.977 1261.63 334.764 1262.09L333.073 1262.74Z" fill="white"/>
<circle opacity="0.8" cx="470.548" cy="1274.55" r="11.56" transform="rotate(63 470.548 1274.55)" fill="white"/>
<path opacity="0.81" d="M892.942 1391.43C895.068 1393.41 893.415 1396.95 890.531 1396.6L885.503 1395.98C884.213 1395.82 882.968 1396.51 882.419 1397.69L880.278 1402.28C879.05 1404.92 875.169 1404.44 874.614 1401.59L873.648 1396.62C873.4 1395.34 872.358 1394.37 871.068 1394.21L866.041 1393.59C863.156 1393.24 862.41 1389.4 864.952 1387.99L869.382 1385.54C870.519 1384.91 871.121 1383.62 870.873 1382.34L869.906 1377.37C869.352 1374.51 872.772 1372.62 874.897 1374.6L878.602 1378.06C879.552 1378.94 880.965 1379.11 882.102 1378.48L886.532 1376.03C889.074 1374.62 891.934 1377.29 890.706 1379.92L888.565 1384.51C888.016 1385.69 888.287 1387.09 889.238 1387.97L892.942 1391.43Z" fill="white"/>
<rect opacity="0.96" x="799" y="1304" width="25.08" height="25.08" rx="5" transform="rotate(-108 799 1304)" fill="white"/>
<path opacity="0.74" d="M1060.52 1265.01C1061.82 1267.8 1059.62 1270.96 1056.55 1270.69L1034.12 1268.73C1031.05 1268.46 1029.42 1264.97 1031.19 1262.45L1044.1 1244C1045.87 1241.48 1049.7 1241.82 1051.01 1244.61L1060.52 1265.01Z" fill="white"/>
<path opacity="0.74" d="M925.867 1286.58C924.733 1289.44 920.926 1290.01 919.013 1287.59L905.025 1269.95C903.112 1267.53 904.529 1263.96 907.575 1263.51L929.85 1260.21C932.896 1259.76 935.287 1262.78 934.154 1265.64L925.867 1286.58Z" fill="white"/>
<circle opacity="0.96" cx="1176.71" cy="1271.71" r="18.19" transform="rotate(85 1176.71 1271.71)" fill="white"/>
<path opacity="0.94" d="M1348.25 1239.42C1351.28 1238.88 1353.76 1241.83 1352.7 1244.73L1340.26 1278.91C1339.21 1281.8 1335.42 1282.47 1333.44 1280.11L1310.06 1252.24C1308.08 1249.89 1309.4 1246.27 1312.43 1245.73L1348.25 1239.42Z" fill="white"/>
<rect opacity="0.76" x="245" y="1326.13" width="34.32" height="34.32" rx="5" transform="rotate(-38 245 1326.13)" fill="white"/>
<circle opacity="0.84" cx="322.728" cy="1397.73" r="18.19" transform="rotate(-61 322.728 1397.73)" fill="white"/>
<rect opacity="0.96" x="387.46" y="1305" width="34.32" height="34.32" rx="5" transform="rotate(16 387.46 1305)" fill="white"/>
<path opacity="0.76" d="M498.586 1457.97C495.952 1456.74 496.429 1452.86 499.281 1452.3L501.059 1451.96C502.334 1451.71 503.305 1450.67 503.464 1449.38L503.684 1447.58C504.039 1444.7 507.877 1443.95 509.286 1446.49L510.164 1448.08C510.794 1449.21 512.084 1449.81 513.36 1449.57L515.137 1449.22C517.99 1448.67 519.886 1452.09 517.904 1454.21L516.669 1455.54C515.782 1456.49 515.609 1457.9 516.239 1459.04L517.117 1460.62C518.526 1463.16 515.859 1466.02 513.225 1464.79L511.584 1464.03C510.406 1463.48 509.009 1463.75 508.122 1464.7L506.888 1466.02C504.906 1468.15 501.362 1466.5 501.716 1463.61L501.937 1461.82C502.095 1460.53 501.405 1459.28 500.227 1458.73L498.586 1457.97Z" fill="white"/>
<path opacity="0.9" d="M669.608 1251.53C672.552 1252.43 673.418 1256.18 671.166 1258.28L646.781 1281.02C644.529 1283.12 640.849 1281.99 640.156 1278.99L632.656 1246.5C631.963 1243.5 634.778 1240.88 637.723 1241.78L669.608 1251.53Z" fill="white"/>
<circle opacity="0.94" cx="997.687" cy="1352.69" r="13.94" transform="rotate(-42 997.687 1352.69)" fill="white"/>
<rect opacity="0.85" x="1248" y="1376.75" width="34.98" height="34.98" rx="5" transform="rotate(-126 1248 1376.75)" fill="white"/>
<path opacity="0.88" d="M1390 1367.7C1392.22 1369.57 1390.76 1373.19 1387.86 1372.99L1386.87 1372.92C1385.57 1372.83 1384.36 1373.58 1383.88 1374.79L1383.5 1375.71C1382.41 1378.41 1378.51 1378.13 1377.81 1375.31L1377.57 1374.35C1377.25 1373.09 1376.16 1372.17 1374.87 1372.08L1373.87 1372.01C1370.97 1371.81 1370.03 1368.01 1372.49 1366.47L1373.34 1365.95C1374.44 1365.26 1374.97 1363.94 1374.66 1362.68L1374.42 1361.71C1373.71 1358.89 1377.03 1356.82 1379.26 1358.68L1380.02 1359.33C1381.02 1360.16 1382.44 1360.26 1383.54 1359.57L1384.38 1359.04C1386.85 1357.5 1389.84 1360.02 1388.75 1362.71L1388.38 1363.64C1387.89 1364.84 1388.24 1366.22 1389.23 1367.06L1390 1367.7Z" fill="white"/>
<rect opacity="0.78" x="60" y="1457.5" width="33.66" height="33.66" rx="5" transform="rotate(105 60 1457.5)" fill="white"/>
<path opacity="0.77" d="M186.669 1465.43C189.308 1467.01 189.241 1470.86 186.548 1472.36L164.582 1484.53C161.889 1486.02 158.59 1484.04 158.643 1480.96L159.082 1455.85C159.135 1452.77 162.502 1450.91 165.141 1452.49L186.669 1465.43Z" fill="white"/>
<rect opacity="0.86" x="523" y="1351.07" width="27.72" height="27.72" rx="5" transform="rotate(-38 523 1351.07)" fill="white"/>
<path opacity="0.72" d="M628.749 1434.28C627.851 1431.52 631.014 1429.22 633.365 1430.93L637.134 1433.66C638.185 1434.43 639.609 1434.43 640.661 1433.66L644.429 1430.93C646.781 1429.22 649.944 1431.52 649.046 1434.28L647.606 1438.71C647.205 1439.95 647.645 1441.3 648.696 1442.06L652.465 1444.8C654.816 1446.51 653.608 1450.23 650.702 1450.23L646.043 1450.23C644.743 1450.23 643.592 1451.07 643.19 1452.3L641.75 1456.73C640.852 1459.5 636.942 1459.5 636.044 1456.73L634.605 1452.3C634.203 1451.07 633.051 1450.23 631.751 1450.23L627.093 1450.23C624.187 1450.23 622.978 1446.51 625.33 1444.8L629.098 1442.06C630.15 1441.3 630.59 1439.95 630.188 1438.71L628.749 1434.28Z" fill="white"/>
<path opacity="0.87" d="M754.82 1407.94C751.927 1406.89 751.258 1403.1 753.617 1401.12L771.198 1386.37C773.557 1384.39 777.173 1385.7 777.708 1388.74L781.693 1411.34C782.228 1414.37 779.279 1416.84 776.386 1415.79L754.82 1407.94Z" fill="white"/>
<rect opacity="0.96" x="1029" y="1458.5" width="24.75" height="24.75" rx="5" transform="rotate(-115 1029 1458.5)" fill="white"/>
<rect opacity="0.92" x="1156.99" y="1397" width="34.32" height="34.32" rx="5" transform="rotate(74 1156.99 1397)" fill="white"/>
<circle cx="1284.99" cy="1443.22" r="10.2" transform="rotate(-143 1284.99 1443.22)" fill="white"/>
<path d="M88.241 1553.4C91.3085 1553.67 92.9351 1557.15 91.169 1559.68L75.2736 1582.38C73.5074 1584.9 69.6731 1584.56 68.3717 1581.77L56.6598 1556.66C55.3585 1553.87 57.5662 1550.71 60.6336 1550.98L88.241 1553.4Z" fill="white"/>
<path opacity="0.87" d="M248.543 1519.54C247.454 1516.85 250.45 1514.33 252.914 1515.87L253.759 1516.4C254.862 1517.09 256.282 1516.99 257.277 1516.15L258.041 1515.51C260.267 1513.65 263.583 1515.72 262.88 1518.54L262.639 1519.5C262.325 1520.77 262.858 1522.09 263.96 1522.77L264.805 1523.3C267.27 1524.84 266.324 1528.64 263.425 1528.84L262.431 1528.91C261.134 1529 260.044 1529.91 259.729 1531.18L259.488 1532.14C258.785 1534.96 254.884 1535.24 253.796 1532.54L253.422 1531.62C252.935 1530.41 251.728 1529.66 250.431 1529.75L249.437 1529.82C246.538 1530.02 245.073 1526.39 247.299 1524.53L248.063 1523.89C249.059 1523.05 249.403 1521.67 248.916 1520.46L248.543 1519.54Z" fill="white"/>
<path opacity="0.86" d="M368.036 1452C369.576 1449.33 373.425 1449.33 374.964 1452L389.254 1476.75C390.793 1479.42 388.869 1482.75 385.789 1482.75H357.211C354.131 1482.75 352.207 1479.42 353.746 1476.75L368.036 1452Z" fill="white"/>
<path opacity="0.92" d="M707.056 1511.49C705.828 1508.85 708.687 1506.19 711.229 1507.6L714.414 1509.36C715.551 1509.99 716.964 1509.82 717.914 1508.93L720.577 1506.45C722.703 1504.47 726.123 1506.36 725.568 1509.21L724.873 1512.79C724.625 1514.06 725.227 1515.35 726.364 1515.98L729.549 1517.75C732.09 1519.16 731.344 1523 728.46 1523.35L724.846 1523.8C723.556 1523.95 722.514 1524.92 722.266 1526.2L721.572 1529.77C721.017 1532.63 717.136 1533.1 715.908 1530.47L714.369 1527.17C713.82 1525.99 712.574 1525.3 711.284 1525.46L707.67 1525.9C704.786 1526.26 703.133 1522.71 705.259 1520.73L707.922 1518.25C708.872 1517.36 709.144 1515.97 708.595 1514.79L707.056 1511.49Z" fill="white"/>
<path opacity="0.74" d="M840.024 1527.63C841.127 1524.75 844.929 1524.15 846.867 1526.54L859.675 1542.36C861.612 1544.75 860.233 1548.35 857.192 1548.83L837.091 1552.01C834.049 1552.49 831.627 1549.5 832.731 1546.63L840.024 1527.63Z" fill="white"/>
<path opacity="0.73" d="M959.746 1481.26C957.621 1479.28 959.273 1475.73 962.158 1476.09L966.176 1476.58C967.466 1476.74 968.711 1476.05 969.26 1474.87L970.971 1471.2C972.199 1468.57 976.08 1469.05 976.635 1471.9L977.407 1475.87C977.655 1477.15 978.696 1478.12 979.986 1478.28L984.004 1478.77C986.889 1479.13 987.635 1482.96 985.093 1484.37L981.553 1486.34C980.416 1486.97 979.814 1488.26 980.062 1489.53L980.835 1493.51C981.389 1496.36 977.969 1498.25 975.844 1496.27L972.883 1493.51C971.933 1492.62 970.519 1492.45 969.383 1493.08L965.842 1495.04C963.3 1496.45 960.44 1493.79 961.669 1491.15L963.379 1487.48C963.929 1486.31 963.657 1484.91 962.707 1484.02L959.746 1481.26Z" fill="white"/>
<path opacity="0.92" d="M1106.36 1508.69C1108.82 1507.15 1111.82 1509.66 1110.73 1512.36L1106.62 1522.53C1106.14 1523.73 1106.48 1525.11 1107.48 1525.95L1115.88 1533C1118.1 1534.86 1116.64 1538.49 1113.74 1538.29L1102.8 1537.52C1101.5 1537.43 1100.3 1538.18 1099.81 1539.39L1095.7 1549.56C1094.61 1552.25 1090.71 1551.98 1090.01 1549.16L1087.36 1538.52C1087.04 1537.26 1085.95 1536.34 1084.66 1536.25L1073.72 1535.49C1070.82 1535.28 1069.87 1531.49 1072.34 1529.95L1081.64 1524.14C1082.74 1523.45 1083.27 1522.13 1082.96 1520.87L1080.3 1510.23C1079.6 1507.41 1082.92 1505.34 1085.14 1507.21L1093.54 1514.26C1094.54 1515.09 1095.96 1515.19 1097.06 1514.5L1106.36 1508.69Z" fill="white"/>
<path opacity="0.85" d="M1375.9 1510.07C1378.94 1509.59 1381.36 1512.58 1380.26 1515.46L1372.66 1535.26C1371.55 1538.14 1367.75 1538.74 1365.81 1536.35L1352.46 1519.86C1350.52 1517.47 1351.9 1513.87 1354.94 1513.39L1375.9 1510.07Z" fill="white"/>
<rect opacity="0.92" x="124" y="1663.86" width="37.95" height="37.95" rx="5" transform="rotate(-86 124 1663.86)" fill="white"/>
<path opacity="0.89" d="M249.92 1599.64C252.046 1597.65 255.466 1599.55 254.911 1602.4L252.703 1613.77C252.455 1615.04 253.056 1616.33 254.193 1616.96L264.317 1622.57C266.859 1623.98 266.113 1627.82 263.228 1628.17L251.739 1629.59C250.449 1629.74 249.408 1630.71 249.16 1631.99L246.951 1643.35C246.397 1646.21 242.516 1646.68 241.287 1644.05L236.396 1633.56C235.846 1632.38 234.601 1631.69 233.311 1631.85L221.822 1633.26C218.938 1633.61 217.285 1630.07 219.411 1628.09L227.876 1620.19C228.827 1619.31 229.098 1617.91 228.549 1616.73L223.657 1606.24C222.429 1603.61 225.289 1600.94 227.831 1602.35L237.954 1607.96C239.091 1608.59 240.504 1608.42 241.455 1607.53L249.92 1599.64Z" fill="white"/>
<circle opacity="0.83" cx="430.89" cy="1635.89" r="18.36" transform="rotate(95 430.89 1635.89)" fill="white"/>
<rect opacity="0.95" x="590.358" y="1567.32" width="27.06" height="27.06" rx="5" transform="rotate(-95 590.358 1567.32)" fill="white"/>
<circle opacity="0.71" cx="807.047" cy="1649.05" r="12.92" transform="rotate(54 807.047 1649.05)" fill="white"/>
<circle opacity="0.75" cx="958.672" cy="1602.67" r="16.32" transform="rotate(-81 958.672 1602.67)" fill="white"/>
<path opacity="0.91" d="M1228.43 1768.61C1231.21 1767.76 1233.45 1770.96 1231.7 1773.28L1230.61 1774.73C1229.83 1775.77 1229.8 1777.19 1230.55 1778.25L1231.59 1779.74C1233.25 1782.12 1230.9 1785.24 1228.15 1784.29L1226.44 1783.71C1225.21 1783.28 1223.85 1783.7 1223.07 1784.74L1221.98 1786.18C1220.23 1788.5 1216.53 1787.23 1216.58 1784.32L1216.62 1782.51C1216.64 1781.21 1215.82 1780.05 1214.59 1779.63L1212.88 1779.04C1210.13 1778.09 1210.2 1774.18 1212.98 1773.33L1214.71 1772.8C1215.95 1772.42 1216.81 1771.28 1216.83 1769.98L1216.87 1768.17C1216.92 1765.27 1220.66 1764.13 1222.32 1766.51L1223.36 1767.99C1224.11 1769.05 1225.45 1769.52 1226.7 1769.14L1228.43 1768.61Z" fill="white"/>
<path opacity="0.78" d="M1240.58 1519.87C1240.18 1522.75 1236.33 1523.43 1234.96 1520.86L1230.77 1512.97C1230.16 1511.83 1228.88 1511.2 1227.6 1511.43L1218.81 1512.98C1215.94 1513.48 1214.11 1510.03 1216.13 1507.94L1222.33 1501.52C1223.23 1500.58 1223.43 1499.17 1222.82 1498.02L1218.63 1490.14C1217.27 1487.57 1219.98 1484.76 1222.59 1486.03L1230.62 1489.95C1231.79 1490.52 1233.19 1490.27 1234.09 1489.34L1240.3 1482.91C1242.32 1480.82 1245.83 1482.54 1245.43 1485.41L1244.18 1494.26C1244 1495.54 1244.67 1496.8 1245.84 1497.37L1253.87 1501.29C1256.48 1502.56 1255.93 1506.43 1253.07 1506.94L1244.28 1508.49C1243 1508.71 1242.01 1509.74 1241.83 1511.02L1240.58 1519.87Z" fill="white"/>
<circle opacity="0.72" cx="84.5121" cy="1713.51" r="13.09" transform="rotate(-45 84.5121 1713.51)" fill="white"/>
<circle opacity="0.92" cx="280.39" cy="1711.76" r="10.2" transform="rotate(-41 280.39 1711.76)" fill="white"/>
<rect opacity="0.82" x="367" y="1700.75" width="36.96" height="36.96" rx="5" transform="rotate(-179 367 1700.75)" fill="white"/>
<rect opacity="0.9" x="580.933" y="1701" width="37.95" height="37.95" rx="5" transform="rotate(67 580.933 1701)" fill="white"/>
<rect opacity="0.85" x="845.722" y="1825.94" width="33.99" height="33.99" rx="5" transform="rotate(177 845.722 1825.94)" fill="white"/>
<circle opacity="0.86" cx="922.275" cy="1700.4" r="13.43" transform="rotate(-159 922.275 1700.4)" fill="white"/>
<path opacity="0.95" d="M1096.97 1693.42C1094.71 1695.25 1091.43 1693.12 1092.19 1690.31L1092.87 1687.77C1093.2 1686.52 1092.69 1685.19 1091.6 1684.48L1089.4 1683.05C1086.96 1681.47 1087.98 1677.69 1090.88 1677.54L1093.5 1677.4C1094.8 1677.34 1095.9 1676.44 1096.24 1675.18L1096.92 1672.65C1097.67 1669.84 1101.58 1669.64 1102.62 1672.35L1103.56 1674.8C1104.02 1676.01 1105.22 1676.79 1106.52 1676.72L1109.14 1676.58C1112.04 1676.43 1113.44 1680.08 1111.18 1681.91L1109.14 1683.56C1108.13 1684.38 1107.76 1685.76 1108.23 1686.97L1109.17 1689.42C1110.21 1692.13 1107.17 1694.59 1104.73 1693.01L1102.53 1691.58C1101.44 1690.87 1100.02 1690.95 1099.01 1691.77L1096.97 1693.42Z" fill="white"/>
<circle opacity="0.7" cx="1374.48" cy="1671.48" r="17.68" transform="rotate(-170 1374.48 1671.48)" fill="white"/>
<circle opacity="0.99" cx="135.77" cy="1810.6" r="18.02" transform="rotate(20 135.77 1810.6)" fill="white"/>
<circle opacity="0.88" cx="542.316" cy="1613.32" r="12.07" transform="rotate(78 542.316 1613.32)" fill="white"/>
<path opacity="0.85" d="M463.172 1799.93C460.278 1800.99 457.33 1798.51 457.864 1795.48L462 1772.03C462.535 1768.99 466.152 1767.68 468.51 1769.66L486.754 1784.97C489.113 1786.94 488.445 1790.74 485.551 1791.79L463.172 1799.93Z" fill="white"/>
<path opacity="0.97" d="M672.401 1629.66C675.472 1629.45 677.625 1632.64 676.275 1635.4L662.038 1664.59C660.688 1667.36 656.849 1667.63 655.127 1665.08L636.967 1638.15C635.245 1635.6 636.932 1632.14 640.004 1631.93L672.401 1629.66Z" fill="white"/>
<path opacity="0.96" d="M743.739 1744.26C746.614 1745.37 747.216 1749.17 744.823 1751.11L727.997 1764.73C725.604 1766.67 722.011 1765.29 721.529 1762.25L718.142 1740.87C717.66 1737.82 720.652 1735.4 723.526 1736.51L743.739 1744.26Z" fill="white"/>
<path opacity="0.75" d="M1020.16 1787.42C1020.11 1790.5 1016.74 1792.37 1014.1 1790.78L998.882 1781.64C996.242 1780.05 996.31 1776.2 999.003 1774.71L1014.53 1766.1C1017.22 1764.61 1020.52 1766.59 1020.47 1769.67L1020.16 1787.42Z" fill="white"/>
<path opacity="0.87" d="M1209.25 1640.57C1207.99 1637.75 1210.26 1634.64 1213.32 1634.96L1244.76 1638.27C1247.82 1638.59 1249.38 1642.1 1247.57 1644.59L1228.99 1670.17C1227.18 1672.66 1223.36 1672.26 1222.1 1669.44L1209.25 1640.57Z" fill="white"/>
<path opacity="0.97" d="M1386.98 1782.93C1387.73 1779.94 1391.43 1778.88 1393.64 1781.02L1402.68 1789.74C1404.89 1791.88 1403.96 1795.61 1401 1796.46L1388.93 1799.92C1385.97 1800.77 1383.2 1798.1 1383.95 1795.11L1386.98 1782.93Z" fill="white"/>
<circle opacity="0.87" cx="59.7702" cy="1834.31" r="19.89" transform="rotate(18 59.7702 1834.31)" fill="white"/>
<path opacity="0.74" d="M231.81 1827.22C234.709 1827.02 236.174 1830.64 233.948 1832.51L229.288 1836.42C228.293 1837.26 227.948 1838.64 228.435 1839.84L230.714 1845.48C231.802 1848.18 228.807 1850.69 226.342 1849.15L221.184 1845.93C220.082 1845.24 218.661 1845.34 217.666 1846.17L213.006 1850.08C210.78 1851.95 207.464 1849.88 208.167 1847.06L209.639 1841.16C209.953 1839.9 209.42 1838.58 208.318 1837.89L203.159 1834.66C200.695 1833.12 201.641 1829.33 204.54 1829.13L210.607 1828.7C211.904 1828.61 212.995 1827.7 213.309 1826.44L214.781 1820.53C215.484 1817.71 219.384 1817.44 220.473 1820.14L222.751 1825.78C223.238 1826.98 224.446 1827.74 225.742 1827.64L231.81 1827.22Z" fill="white"/>
<path opacity="0.83" d="M349.657 1843.69C350.792 1846.37 347.841 1848.93 345.35 1847.43L343.798 1846.5C342.684 1845.83 341.266 1845.96 340.285 1846.81L338.919 1848C336.725 1849.9 333.374 1847.89 334.027 1845.06L334.435 1843.29C334.727 1842.03 334.171 1840.72 333.057 1840.05L331.505 1839.12C329.014 1837.62 329.893 1833.81 332.788 1833.56L334.592 1833.4C335.887 1833.28 336.961 1832.35 337.254 1831.08L337.661 1829.32C338.315 1826.49 342.21 1826.15 343.345 1828.82L344.053 1830.49C344.561 1831.69 345.781 1832.42 347.076 1832.31L348.879 1832.15C351.774 1831.89 353.302 1835.49 351.109 1837.4L349.743 1838.59C348.762 1839.44 348.441 1840.83 348.949 1842.02L349.657 1843.69Z" fill="white"/>
<circle opacity="0.94" cx="556.508" cy="1867.6" r="10.2" transform="rotate(39 556.508 1867.6)" fill="white"/>
<rect opacity="0.98" x="711.735" y="1840.6" width="24.75" height="24.75" rx="5" transform="rotate(-178 711.735 1840.6)" fill="white"/>
<path opacity="0.84" d="M959.405 1822.29C956.393 1822.93 953.818 1820.07 954.769 1817.14L958.784 1804.79C959.735 1801.86 963.5 1801.06 965.56 1803.35L974.253 1813C976.313 1815.29 975.124 1818.95 972.112 1819.59L959.405 1822.29Z" fill="white"/>
<circle opacity="0.88" cx="1085.32" cy="1846.15" r="20.4" transform="rotate(-178 1085.32 1846.15)" fill="white"/>
<path opacity="0.9" d="M1343.53 1874.99C1344.68 1877.85 1342.31 1880.88 1339.26 1880.45L1316.11 1877.2C1313.06 1876.77 1311.61 1873.2 1313.51 1870.77L1327.91 1852.35C1329.8 1849.92 1333.61 1850.46 1334.77 1853.31L1343.53 1874.99Z" fill="white"/>
<rect opacity="0.92" width="37.95" height="37.95" rx="5" transform="matrix(0.0697565 0.997564 0.997564 -0.0697565 124 2053.39)" fill="white"/>
<path opacity="0.89" d="M249.92 2117.61C252.046 2119.6 255.466 2117.7 254.911 2114.85L252.703 2103.48C252.455 2102.21 253.056 2100.92 254.193 2100.29L264.317 2094.68C266.859 2093.27 266.113 2089.43 263.228 2089.08L251.739 2087.66C250.449 2087.51 249.408 2086.54 249.16 2085.26L246.951 2073.9C246.397 2071.04 242.516 2070.57 241.287 2073.2L236.396 2083.69C235.846 2084.87 234.601 2085.56 233.311 2085.4L221.822 2083.99C218.938 2083.64 217.285 2087.18 219.411 2089.16L227.876 2097.06C228.827 2097.94 229.098 2099.34 228.549 2100.52L223.657 2111.01C222.429 2113.64 225.289 2116.31 227.831 2114.9L237.954 2109.29C239.091 2108.66 240.504 2108.83 241.455 2109.72L249.92 2117.61Z" fill="white"/>
<circle opacity="0.71" r="12.92" transform="matrix(0.587785 -0.809017 -0.809017 -0.587785 807.047 2068.2)" fill="white"/>
<circle opacity="0.75" r="16.32" transform="matrix(0.156434 0.987688 0.987688 -0.156434 949.672 2104.67)" fill="white"/>
<path opacity="0.91" d="M1197.43 1920.09C1200.21 1920.94 1202.45 1917.73 1200.7 1915.41L1199.61 1913.97C1198.83 1912.93 1198.8 1911.51 1199.55 1910.44L1200.59 1908.96C1202.25 1906.58 1199.9 1903.45 1197.15 1904.4L1195.44 1904.99C1194.21 1905.41 1192.85 1905 1192.07 1903.96L1190.98 1902.51C1189.23 1900.19 1185.53 1901.47 1185.58 1904.37L1185.62 1906.18C1185.64 1907.48 1184.82 1908.65 1183.59 1909.07L1181.88 1909.66C1179.13 1910.61 1179.2 1914.52 1181.98 1915.36L1183.71 1915.89C1184.95 1916.27 1185.81 1917.41 1185.83 1918.71L1185.87 1920.52C1185.92 1923.43 1189.66 1924.57 1191.32 1922.19L1192.36 1920.71C1193.11 1919.64 1194.45 1919.18 1195.7 1919.56L1197.43 1920.09Z" fill="white"/>
<circle opacity="0.72" r="13.09" transform="matrix(0.707107 0.707107 0.707107 -0.707107 84.5121 2003.74)" fill="white"/>
<circle opacity="0.92" r="10.2" transform="matrix(0.75471 0.656059 0.656059 -0.75471 280.39 2005.49)" fill="white"/>
<circle opacity="0.92" r="10.2" transform="matrix(0.75471 0.656059 0.656059 -0.75471 33.3898 1953.39)" fill="white"/>
<rect opacity="0.82" width="36.96" height="36.96" rx="5" transform="matrix(-0.999848 0.0174524 0.0174524 0.999848 376.954 2036)" fill="white"/>
<rect opacity="0.82" width="36.96" height="36.96" rx="5" transform="matrix(-0.999848 0.0174524 0.0174524 0.999848 314.954 1887)" fill="white"/>
<rect opacity="0.82" width="36.96" height="36.96" rx="5" transform="matrix(-0.999848 0.0174524 0.0174524 0.999848 202.954 1951)" fill="white"/>
<rect opacity="0.9" width="37.95" height="37.95" rx="5" transform="matrix(0.390731 -0.920505 -0.920505 -0.390731 522.933 2023.76)" fill="white"/>
<circle opacity="0.86" r="13.43" transform="matrix(-0.93358 0.358368 0.358368 0.93358 936.351 1985.35)" fill="white"/>
<path opacity="0.95" d="M1077.38 2004.33C1075.12 2002.5 1071.84 2004.63 1072.59 2007.44L1073.27 2009.98C1073.61 2011.23 1073.1 2012.56 1072.01 2013.27L1069.81 2014.7C1067.37 2016.28 1068.38 2020.06 1071.28 2020.21L1073.9 2020.35C1075.2 2020.41 1076.31 2021.31 1076.65 2022.57L1077.32 2025.1C1078.08 2027.91 1081.98 2028.11 1083.02 2025.4L1083.96 2022.95C1084.43 2021.74 1085.62 2020.96 1086.92 2021.03L1089.54 2021.17C1092.44 2021.32 1093.85 2017.67 1091.59 2015.84L1089.55 2014.19C1088.54 2013.37 1088.17 2011.99 1088.63 2010.78L1089.58 2008.33C1090.62 2005.62 1087.58 2003.16 1085.14 2004.74L1082.94 2006.17C1081.85 2006.88 1080.43 2006.8 1079.42 2005.98L1077.38 2004.33Z" fill="white"/>
<circle opacity="0.7" r="17.68" transform="matrix(-0.984808 0.173648 0.173648 0.984808 1374.48 2045.77)" fill="white"/>
<circle opacity="0.88" r="12.07" transform="matrix(0.207912 -0.978148 -0.978148 -0.207912 635.316 1948.32)" fill="white"/>
<path opacity="0.85" d="M454.172 1891.35C451.278 1890.3 448.33 1892.77 448.864 1895.8L453 1919.26C453.535 1922.29 457.152 1923.61 459.51 1921.63L477.754 1906.32C480.113 1904.34 479.445 1900.55 476.551 1899.5L454.172 1891.35Z" fill="white"/>
<path opacity="0.85" d="M391.172 1948.35C388.278 1947.3 385.33 1949.77 385.864 1952.8L390 1976.26C390.535 1979.29 394.152 1980.61 396.51 1978.63L414.754 1963.32C417.113 1961.34 416.445 1957.55 413.551 1956.5L391.172 1948.35Z" fill="white"/>
<path opacity="0.97" d="M672.401 2087.59C675.472 2087.8 677.625 2084.61 676.275 2081.85L662.038 2052.66C660.688 2049.89 656.849 2049.62 655.127 2052.17L636.967 2079.1C635.245 2081.65 636.932 2085.11 640.004 2085.32L672.401 2087.59Z" fill="white"/>
<path opacity="0.96" d="M743.739 1972.99C746.614 1971.88 747.216 1968.08 744.823 1966.14L727.997 1952.52C725.604 1950.58 722.011 1951.96 721.529 1955L718.142 1976.38C717.66 1979.43 720.652 1981.85 723.526 1980.74L743.739 1972.99Z" fill="white"/>
<path opacity="0.75" d="M997.778 1888.77C997.725 1885.7 994.358 1883.83 991.719 1885.42L976.501 1894.56C973.862 1896.15 973.929 1899.99 976.622 1901.49L992.149 1910.09C994.843 1911.59 998.142 1909.6 998.088 1906.53L997.778 1888.77Z" fill="white"/>
<path opacity="0.87" d="M1235.25 2036.77C1233.99 2039.58 1236.26 2042.69 1239.32 2042.37L1270.76 2039.07C1273.82 2038.75 1275.38 2035.23 1273.57 2032.74L1254.99 2007.16C1253.18 2004.67 1249.36 2005.08 1248.1 2007.89L1235.25 2036.77Z" fill="white"/>
<path opacity="0.97" d="M1386.98 1934.32C1387.73 1937.31 1391.43 1938.37 1393.64 1936.23L1402.68 1927.51C1404.89 1925.37 1403.96 1921.64 1401 1920.79L1388.93 1917.33C1385.97 1916.48 1383.2 1919.15 1383.95 1922.14L1386.98 1934.32Z" fill="white"/>
<path opacity="0.84" d="M852.148 1910.96C849.137 1910.32 846.561 1913.18 847.513 1916.11L851.527 1928.46C852.478 1931.39 856.243 1932.19 858.304 1929.9L866.996 1920.25C869.056 1917.96 867.867 1914.3 864.855 1913.66L852.148 1910.96Z" fill="white"/>
<circle r="17" transform="matrix(1 0 0 -1 75 2370.25)" fill="white"/>
<rect width="33" height="33" rx="5" transform="matrix(1 0 0 -1 161 2321.25)" fill="white"/>
<path opacity="0.81" d="M892.942 2325.82C895.068 2323.84 893.415 2320.3 890.531 2320.65L885.503 2321.27C884.213 2321.43 882.968 2320.74 882.419 2319.56L880.278 2314.97C879.05 2312.33 875.169 2312.81 874.614 2315.66L873.648 2320.63C873.4 2321.91 872.358 2322.88 871.068 2323.04L866.041 2323.66C863.156 2324.01 862.41 2327.85 864.952 2329.26L869.382 2331.71C870.519 2332.34 871.121 2333.63 870.873 2334.91L869.906 2339.88C869.352 2342.74 872.772 2344.63 874.897 2342.65L878.602 2339.19C879.552 2338.31 880.965 2338.14 882.102 2338.77L886.532 2341.22C889.074 2342.63 891.934 2339.96 890.706 2337.33L888.565 2332.74C888.016 2331.56 888.287 2330.16 889.238 2329.28L892.942 2325.82Z" fill="white"/>
<circle opacity="0.84" r="18.19" transform="matrix(0.48481 0.87462 0.87462 -0.48481 301.728 2320.52)" fill="white"/>
<rect opacity="0.96" width="34.32" height="34.32" rx="5" transform="matrix(0.961262 -0.275637 -0.275637 -0.961262 419.46 2378.45)" fill="white"/>
<path opacity="0.76" d="M498.586 2259.28C495.952 2260.51 496.429 2264.39 499.281 2264.95L501.059 2265.29C502.334 2265.54 503.305 2266.58 503.464 2267.87L503.684 2269.67C504.039 2272.55 507.877 2273.3 509.286 2270.76L510.164 2269.17C510.794 2268.04 512.084 2267.44 513.36 2267.68L515.137 2268.03C517.99 2268.58 519.886 2265.16 517.904 2263.04L516.669 2261.71C515.782 2260.76 515.609 2259.35 516.239 2258.21L517.117 2256.63C518.526 2254.09 515.859 2251.23 513.225 2252.46L511.584 2253.22C510.406 2253.77 509.009 2253.5 508.122 2252.55L506.888 2251.23C504.906 2249.1 501.362 2250.75 501.716 2253.64L501.937 2255.43C502.095 2256.72 501.405 2257.97 500.227 2258.52L498.586 2259.28Z" fill="white"/>
<circle opacity="0.94" r="13.94" transform="matrix(0.743145 0.669131 0.669131 -0.743145 938.687 2381.69)" fill="white"/>
<rect opacity="0.85" width="34.98" height="34.98" rx="5" transform="matrix(-0.587785 0.809017 0.809017 0.587785 1226.56 2320)" fill="white"/>
<path opacity="0.88" d="M1390 2349.55C1392.22 2347.68 1390.76 2344.06 1387.86 2344.26L1386.87 2344.33C1385.57 2344.42 1384.36 2343.67 1383.88 2342.46L1383.5 2341.54C1382.41 2338.84 1378.51 2339.12 1377.81 2341.94L1377.57 2342.9C1377.25 2344.16 1376.16 2345.08 1374.87 2345.17L1373.87 2345.24C1370.97 2345.44 1370.03 2349.24 1372.49 2350.78L1373.34 2351.3C1374.44 2351.99 1374.97 2353.31 1374.66 2354.57L1374.42 2355.54C1373.71 2358.36 1377.03 2360.43 1379.26 2358.57L1380.02 2357.92C1381.02 2357.09 1382.44 2356.99 1383.54 2357.68L1384.38 2358.21C1386.85 2359.75 1389.84 2357.23 1388.75 2354.54L1388.38 2353.61C1387.89 2352.41 1388.24 2351.03 1389.23 2350.19L1390 2349.55Z" fill="white"/>
<path opacity="0.88" d="M1282 2129.77C1284.22 2127.9 1282.76 2124.28 1279.86 2124.48L1278.87 2124.55C1277.57 2124.64 1276.36 2123.89 1275.88 2122.68L1275.5 2121.76C1274.41 2119.06 1270.51 2119.34 1269.81 2122.15L1269.57 2123.12C1269.25 2124.38 1268.16 2125.3 1266.87 2125.39L1265.87 2125.46C1262.97 2125.66 1262.03 2129.46 1264.49 2131L1265.34 2131.52C1266.44 2132.21 1266.97 2133.53 1266.66 2134.79L1266.42 2135.76C1265.71 2138.58 1269.03 2140.65 1271.26 2138.78L1272.02 2138.14C1273.02 2137.31 1274.44 2137.21 1275.54 2137.9L1276.38 2138.43C1278.85 2139.97 1281.84 2137.45 1280.75 2134.76L1280.38 2133.83C1279.89 2132.63 1280.24 2131.25 1281.23 2130.41L1282 2129.77Z" fill="white"/>
<rect opacity="0.78" width="33.66" height="33.66" rx="5" transform="matrix(-0.258819 -0.965926 -0.965926 0.258819 60 2259.75)" fill="white"/>
<path opacity="0.77" d="M186.669 2251.82C189.308 2250.24 189.241 2246.39 186.548 2244.89L164.582 2232.72C161.889 2231.23 158.59 2233.21 158.643 2236.29L159.082 2261.4C159.135 2264.48 162.502 2266.34 165.141 2264.76L186.669 2251.82Z" fill="white"/>
<rect opacity="0.86" width="27.72" height="27.72" rx="5" transform="matrix(0.788011 0.615662 0.615662 -0.788011 557 2367.84)" fill="white"/>
<path opacity="0.72" d="M628.749 2282.97C627.851 2285.73 631.014 2288.03 633.365 2286.32L637.134 2283.59C638.185 2282.82 639.609 2282.82 640.661 2283.59L644.429 2286.32C646.781 2288.03 649.944 2285.73 649.046 2282.97L647.606 2278.54C647.205 2277.3 647.645 2275.95 648.696 2275.19L652.465 2272.45C654.816 2270.74 653.608 2267.02 650.702 2267.02L646.043 2267.02C644.743 2267.02 643.592 2266.18 643.19 2264.95L641.75 2260.52C640.852 2257.75 636.942 2257.75 636.044 2260.52L634.605 2264.95C634.203 2266.18 633.051 2267.02 631.751 2267.02L627.093 2267.02C624.187 2267.02 622.978 2270.74 625.33 2272.45L629.098 2275.19C630.15 2275.95 630.59 2277.3 630.188 2278.54L628.749 2282.97Z" fill="white"/>
<path opacity="0.87" d="M733.2 2299.56C730.307 2300.61 729.639 2304.4 731.997 2306.38L749.578 2321.13C751.937 2323.11 755.554 2321.8 756.088 2318.76L760.073 2296.16C760.608 2293.13 757.66 2290.66 754.766 2291.71L733.2 2299.56Z" fill="white"/>
<path opacity="0.87" d="M733.2 1158.56C730.307 1159.61 729.639 1163.4 731.997 1165.38L749.578 1180.13C751.937 1182.11 755.554 1180.8 756.088 1177.76L760.073 1155.16C760.608 1152.13 757.66 1149.66 754.766 1150.71L733.2 1158.56Z" fill="white"/>
<path opacity="0.87" d="M733.2 2383.56C730.307 2384.61 729.639 2388.4 731.997 2390.38L749.578 2405.13C751.937 2407.11 755.554 2405.8 756.088 2402.76L760.073 2380.16C760.608 2377.13 757.66 2374.66 754.766 2375.71L733.2 2383.56Z" fill="white"/>
<rect opacity="0.96" width="24.75" height="24.75" rx="5" transform="matrix(-0.422618 0.906308 0.906308 0.422618 1029 2258.75)" fill="white"/>
<rect opacity="0.92" width="34.32" height="34.32" rx="5" transform="matrix(0.275637 -0.961262 -0.961262 -0.275637 1156.99 2320.25)" fill="white"/>
<circle r="10.2" transform="matrix(-0.798635 0.601815 0.601815 0.798635 1284.99 2274.03)" fill="white"/>
<circle r="10.2" transform="matrix(-0.798635 0.601815 0.601815 0.798635 1099.28 2372.28)" fill="white"/>
<path d="M88.241 2163.85C91.3085 2163.58 92.9351 2160.1 91.169 2157.57L75.2736 2134.87C73.5074 2132.35 69.6731 2132.69 68.3717 2135.48L56.6598 2160.59C55.3585 2163.38 57.5662 2166.54 60.6336 2166.27L88.241 2163.85Z" fill="white"/>
<path opacity="0.87" d="M248.543 2197.71C247.454 2200.41 250.45 2202.92 252.914 2201.38L253.759 2200.85C254.862 2200.16 256.282 2200.26 257.277 2201.1L258.041 2201.74C260.267 2203.61 263.583 2201.53 262.88 2198.71L262.639 2197.75C262.325 2196.48 262.858 2195.16 263.96 2194.48L264.805 2193.95C267.27 2192.41 266.324 2188.61 263.425 2188.41L262.431 2188.34C261.134 2188.25 260.044 2187.34 259.729 2186.07L259.488 2185.11C258.785 2182.29 254.884 2182.02 253.796 2184.71L253.422 2185.63C252.935 2186.84 251.728 2187.59 250.431 2187.5L249.437 2187.43C246.538 2187.23 245.073 2190.86 247.299 2192.72L248.063 2193.36C249.059 2194.2 249.403 2195.58 248.916 2196.79L248.543 2197.71Z" fill="white"/>
<path opacity="0.86" d="M368.036 2265.25C369.576 2267.92 373.425 2267.92 374.964 2265.25L389.254 2240.5C390.793 2237.83 388.869 2234.5 385.789 2234.5H357.211C354.131 2234.5 352.207 2237.83 353.746 2240.5L368.036 2265.25Z" fill="white"/>
<path opacity="0.92" d="M705.056 2181.07C703.828 2183.7 706.687 2186.37 709.229 2184.96L712.414 2183.2C713.551 2182.57 714.964 2182.74 715.914 2183.63L718.577 2186.11C720.703 2188.09 724.123 2186.2 723.568 2183.34L722.873 2179.77C722.625 2178.49 723.227 2177.2 724.364 2176.57L727.549 2174.81C730.09 2173.4 729.344 2169.56 726.46 2169.21L722.846 2168.76C721.556 2168.6 720.514 2167.63 720.266 2166.36L719.572 2162.78C719.017 2159.93 715.136 2159.45 713.908 2162.09L712.369 2165.39C711.82 2166.56 710.574 2167.26 709.284 2167.1L705.67 2166.65C702.786 2166.3 701.133 2169.84 703.259 2171.82L705.922 2174.31C706.872 2175.19 707.144 2176.59 706.595 2177.77L705.056 2181.07Z" fill="white"/>
<path opacity="0.74" d="M835.024 2228.64C836.127 2231.51 839.929 2232.11 841.867 2229.72L854.675 2213.9C856.612 2211.51 855.233 2207.92 852.192 2207.43L832.091 2204.25C829.049 2203.77 826.627 2206.76 827.731 2209.64L835.024 2228.64Z" fill="white"/>
<path opacity="0.73" d="M959.746 2235.99C957.621 2237.97 959.273 2241.52 962.158 2241.16L966.176 2240.67C967.466 2240.51 968.711 2241.2 969.26 2242.38L970.971 2246.05C972.199 2248.68 976.08 2248.2 976.635 2245.35L977.407 2241.38C977.655 2240.1 978.696 2239.13 979.986 2238.97L984.004 2238.48C986.889 2238.12 987.635 2234.29 985.093 2232.88L981.553 2230.91C980.416 2230.28 979.814 2228.99 980.062 2227.72L980.835 2223.74C981.389 2220.89 977.969 2219 975.844 2220.98L972.883 2223.74C971.933 2224.63 970.519 2224.8 969.383 2224.17L965.842 2222.21C963.3 2220.8 960.44 2223.46 961.669 2226.1L963.379 2229.77C963.929 2230.94 963.657 2232.34 962.707 2233.23L959.746 2235.99Z" fill="white"/>
<path opacity="0.92" d="M1092.36 2171.09C1094.82 2172.63 1097.82 2170.12 1096.73 2167.43L1092.62 2157.26C1092.14 2156.05 1092.48 2154.67 1093.48 2153.84L1101.88 2146.79C1104.1 2144.92 1102.64 2141.3 1099.74 2141.5L1088.8 2142.26C1087.5 2142.35 1086.3 2141.6 1085.81 2140.39L1081.7 2130.23C1080.61 2127.53 1076.71 2127.81 1076.01 2130.63L1073.36 2141.27C1073.04 2142.53 1071.95 2143.44 1070.66 2143.53L1059.72 2144.3C1056.82 2144.5 1055.87 2148.29 1058.34 2149.83L1067.64 2155.64C1068.74 2156.33 1069.27 2157.65 1068.96 2158.91L1066.3 2169.55C1065.6 2172.37 1068.92 2174.45 1071.14 2172.58L1079.54 2165.53C1080.54 2164.69 1081.96 2164.59 1083.06 2165.28L1092.36 2171.09Z" fill="white"/>
<path opacity="0.85" d="M1375.9 2207.18C1378.94 2207.66 1381.36 2204.67 1380.26 2201.79L1372.66 2181.99C1371.55 2179.11 1367.75 2178.51 1365.81 2180.9L1352.46 2197.39C1350.52 2199.78 1351.9 2203.38 1354.94 2203.86L1375.9 2207.18Z" fill="white"/>
<circle opacity="0.83" r="18.36" transform="matrix(-0.0871557 -0.996195 -0.996195 0.0871557 375.89 2140.89)" fill="white"/>
<rect opacity="0.95" width="27.06" height="27.06" rx="5" transform="matrix(-0.0871557 0.996195 0.996195 0.0871557 557.358 2146)" fill="white"/>
<path opacity="0.78" d="M1240.58 2197.38C1240.18 2194.5 1236.33 2193.82 1234.96 2196.39L1230.77 2204.28C1230.16 2205.42 1228.88 2206.05 1227.6 2205.82L1218.81 2204.27C1215.94 2203.77 1214.11 2207.22 1216.13 2209.31L1222.33 2215.73C1223.23 2216.67 1223.43 2218.08 1222.82 2219.23L1218.63 2227.11C1217.27 2229.68 1219.98 2232.49 1222.59 2231.22L1230.62 2227.3C1231.79 2226.73 1233.19 2226.98 1234.09 2227.91L1240.3 2234.34C1242.32 2236.43 1245.83 2234.71 1245.43 2231.84L1244.18 2222.99C1244 2221.71 1244.67 2220.45 1245.84 2219.88L1253.87 2215.96C1256.48 2214.69 1255.93 2210.82 1253.07 2210.31L1244.28 2208.76C1243 2208.54 1242.01 2207.51 1241.83 2206.23L1240.58 2197.38Z" fill="white"/>
<rect opacity="0.76" width="34.32" height="34.32" rx="5" transform="matrix(0.788011 0.615662 0.615662 -0.788011 214 2384.04)" fill="white"/>
</g>
<defs>
<clipPath id="clip0">
<rect width="1440" height="2450" fill="white"/>
</clipPath>
</defs>
</svg>
