<svg width="1291" height="1090" viewBox="0 0 1291 1090" fill="none" xmlns="http://www.w3.org/2000/svg">
<path d="M632.512 857.995C654.713 915.38 625.526 982.047 564.02 983.791C537.089 984.554 510.025 981.989 483.453 976.05C420.355 961.947 362.857 929.45 318.228 882.669C273.6 835.888 243.846 776.923 232.729 713.232C228.047 686.409 226.76 659.255 228.79 632.389C233.427 571.034 301.394 545.017 357.671 569.896L403.497 590.155C434.464 603.844 446.41 641.565 452.231 674.919C455.771 695.197 465.244 713.97 479.452 728.864C493.661 743.759 511.967 754.105 532.056 758.595C565.099 765.98 602.216 779.688 614.433 811.266L632.512 857.995Z" fill="#FFEFD2"/>
<path d="M776.869 934.933C784.273 965.511 818.763 988.804 851.135 980.088C890.422 969.511 925.911 951.607 955.193 927.296C984.475 902.985 1006.57 873.079 1020.33 839.619C1031.66 812.05 1006 781.43 970.857 773.878C935.717 766.327 904.712 785.242 888.694 810.6C881.238 822.404 871.794 833.14 860.55 842.474C849.307 851.809 836.509 859.54 822.549 865.515C792.561 878.352 769.464 904.354 776.869 934.933Z" fill="#603A18"/>
<path d="M368.434 403.103C331.641 413.594 292.016 391.739 294.426 353.555C295.481 336.836 298.605 320.223 303.79 304.106C316.103 265.836 339.487 232.076 370.987 207.095C402.486 182.115 440.685 167.037 480.755 163.766C497.629 162.389 514.516 163.132 531.037 165.914C568.765 172.266 581.019 215.828 562.421 249.263L547.277 276.49C537.043 294.889 513.008 300.145 492.025 301.858C479.268 302.899 467.106 307.7 457.077 315.653C447.048 323.606 439.603 334.355 435.683 346.539C429.235 366.581 418.641 388.786 398.395 394.559L368.434 403.103Z" fill="#BBA9D1"/>
<path d="M660.066 212.952C632.578 154.186 658.479 81.956 723.052 75.692C751.327 72.9491 779.98 73.6977 808.361 78.0316C875.75 88.3222 938.574 118.365 988.889 164.361C1039.2 210.356 1074.75 270.239 1091.03 336.437C1097.89 364.315 1101.2 392.786 1101 421.193C1100.54 486.068 1030.92 518.33 969.926 496.213L920.261 478.203C886.7 466.033 871.418 427.214 862.892 392.548C857.708 371.472 846.391 352.406 830.372 337.762C814.353 323.118 794.351 313.553 772.896 310.277C737.605 304.888 697.574 293.142 682.449 260.805L660.066 212.952Z" fill="#FFEFD2"/>
<path d="M809.681 30.1914C811.703 17.2237 823.873 8.2827 836.707 11.028C858.513 15.6924 879.916 22.0709 900.718 30.1039C912.961 34.8319 918.251 48.9764 912.845 60.9353C907.438 72.8942 893.383 78.1302 881.106 73.489C864.252 67.1174 846.962 61.9648 829.37 58.0711C816.556 55.2349 807.66 43.1592 809.681 30.1914Z" fill="#603A18"/>
<path d="M876.627 613.512C855.437 610.404 845.255 591.918 858.416 573.54C864.346 565.259 870.921 557.233 878.083 549.533C893.978 532.441 920.35 531.165 933.42 544.185L937.956 548.703C948.521 559.228 944.158 577.349 932.379 591.727C920.6 606.105 901.109 617.103 883.981 614.591L876.627 613.512Z" fill="#FCD7E4"/>
</svg>
