<svg width="400" height="402" viewBox="0 0 400 402" fill="none" xmlns="http://www.w3.org/2000/svg">
<mask id="mask0" mask-type="alpha" maskUnits="userSpaceOnUse" x="0" y="0" width="400" height="402">
<rect width="400" height="402" rx="80" fill="#603A18"/>
</mask>
<g mask="url(#mask0)">
<circle cx="408.273" cy="150" r="198" fill="#F1582E"/>
<circle cx="202.273" cy="51" r="99" fill="#F8C013"/>
<path d="M152 158.833C133.537 155.934 115.295 168.866 115.562 187.787C115.887 210.751 120.929 233.347 130.513 254.107C140.098 274.867 153.905 293.099 170.941 307.741C184.979 319.806 206.11 313.131 215.494 296.366C224.879 279.601 218.613 259.133 206.511 245.102C200.878 238.57 196.141 231.232 192.46 223.26C188.78 215.289 186.238 206.858 184.861 198.206C181.904 179.621 170.462 161.731 152 158.833Z" fill="#BBA9D1"/>
<path d="M245.758 94.4572C249.869 76.8676 267.685 65.6468 284.065 73.263C291.444 76.6944 298.55 80.6873 305.318 85.2062C320.341 95.2361 320.022 116.289 307.135 128.947L302.663 133.34C292.247 143.572 275.605 143.007 262.875 135.854C250.146 128.701 241.009 114.78 244.332 100.561L245.758 94.4572Z" fill="white"/>
</g>
</svg>
