<svg width="45" height="46" viewBox="0 0 45 46" fill="none" xmlns="http://www.w3.org/2000/svg">
<path d="M45 40.25V5.75C45 2.56833 42.4004 0 39.1799 0H-15.1799C-18.4004 0 -21 2.56833 -21 5.75V40.25C-21 43.4317 -18.4004 46 -15.1799 46H39.1799C42.4004 46 45 43.4317 45 40.25ZM39.9171 5.32833C41.1975 6.59333 40.4991 7.89667 39.8007 8.54833L24.0476 22.8083L39.1799 38.3717C39.6455 38.9083 39.9559 39.7517 39.4127 40.3267C38.9083 40.94 37.7443 40.9017 37.2399 40.5183L20.284 26.22L11.9806 33.695L3.71605 26.22L-13.2399 40.5183C-13.7443 40.9017 -14.9083 40.94 -15.4127 40.3267C-15.9559 39.7517 -15.6455 38.9083 -15.1799 38.3717L-0.0476208 22.8083L-15.8007 8.54833C-16.4991 7.89667 -17.1975 6.59333 -15.9171 5.32833C-14.6367 4.06333 -13.3175 4.67667 -12.231 5.59667L11.9806 24.9167L36.231 5.59667C37.3175 4.67667 38.6367 4.06333 39.9171 5.32833Z" fill="#C6431F"/>
</svg>
