<svg width="544" height="278" viewBox="0 0 544 278" fill="none" xmlns="http://www.w3.org/2000/svg">
<path d="M-197.542 51.6149C-219.421 174.721 -135.093 296.262 -11.6401 275.714C42.4166 266.716 95.4349 251.031 146.155 228.807C266.589 176.036 368.655 88.773 439.445 -21.9478C510.236 -132.669 546.572 -261.874 543.859 -393.226C542.716 -448.543 534.669 -503.195 520.111 -555.976C486.865 -676.515 341.023 -701.846 238.418 -630.252L154.866 -571.952C98.4051 -532.557 89.31 -452.67 90.731 -383.884C91.5949 -342.064 80.0263 -300.928 57.488 -265.677C34.9498 -230.426 2.4542 -202.643 -35.8894 -185.842C-98.9585 -158.207 -167.687 -116.373 -179.726 -48.6314L-197.542 51.6149Z" fill="#FFEFD2"/>
</svg>
