<svg width="838" height="322" viewBox="0 0 838 322" fill="none" xmlns="http://www.w3.org/2000/svg">
<path d="M226.384 -419.543C103.278 -441.421 -18.2636 -357.093 2.28484 -233.641C11.2825 -179.584 26.9682 -126.566 49.1921 -75.8458C101.963 44.5883 189.226 146.654 299.947 217.445C410.667 288.236 539.873 324.572 671.225 321.858C726.542 320.716 781.194 312.669 833.975 298.111C954.514 264.864 979.845 119.023 908.251 16.4175L849.951 -67.1348C810.555 -123.595 730.669 -132.69 661.882 -131.269C620.063 -130.406 578.927 -141.974 543.675 -164.512C508.424 -187.051 480.642 -219.546 463.841 -257.89C436.206 -320.959 394.372 -389.688 326.63 -401.727L226.384 -419.543Z" fill="#F1582E"/>
</svg>
