<svg width="1440" height="78" viewBox="0 0 1440 78" fill="none" xmlns="http://www.w3.org/2000/svg">
<g clip-path="url(#clip0)">
<rect width="1440" height="6170" transform="translate(0 -5193)" fill="#FFEFD2"/>
<rect x="-0.00012207" y="-331" width="1440" height="1075" fill="#603A18"/>
<path d="M828.384 -327.543C705.278 -349.421 583.737 -265.093 604.285 -141.641C613.283 -87.5839 628.968 -34.5657 651.192 16.1542C703.963 136.588 791.226 238.654 901.947 309.445C1012.67 380.236 1141.87 416.572 1273.22 413.858C1328.54 412.716 1383.19 404.669 1435.98 390.111C1556.51 356.864 1581.84 211.023 1510.25 108.418L1451.95 24.8652C1412.56 -31.5954 1332.67 -40.6904 1263.88 -39.2695C1222.06 -38.4056 1180.93 -49.9742 1145.68 -72.5125C1110.42 -95.0507 1082.64 -127.546 1065.84 -165.89C1038.21 -228.959 996.372 -297.688 928.63 -309.727L828.384 -327.543Z" fill="#F1582E"/>
<path d="M720 78C1117.65 78 1440 0 1440 0H0C0 0 322.355 78 720 78Z" fill="#F8C013"/>
</g>
<defs>
<clipPath id="clip0">
<rect width="1440" height="6170" fill="white" transform="translate(0 -5193)"/>
</clipPath>
</defs>
</svg>
