<svg width="66" height="53" viewBox="0 0 66 53" fill="none" xmlns="http://www.w3.org/2000/svg">
<path d="M37.1234 41.31L43.273 37.5579C44.0996 37.0607 45.0663 36.8051 46.0557 36.8224C47.0451 36.8396 48.0147 37.1289 48.8468 37.655L54.5951 41.3315C55.4336 41.8743 56.0897 42.6366 56.4808 43.5225C56.8719 44.4083 56.9803 45.378 56.7925 46.3094L54.5064 57.1069C54.3672 57.738 54.0941 58.3329 53.7036 58.8558C53.313 59.3786 52.813 59.8185 52.2338 60.1491C51.6545 60.4797 51.008 60.6941 50.333 60.7793C49.658 60.8646 48.9687 60.819 48.3064 60.6453C5.07801 48.8077 3.65277 11.9536 4.81721 -1.78904C4.87888 -2.46295 5.09064 -3.11349 5.43855 -3.69785C5.78647 -4.28222 6.26265 -4.78717 6.83578 -5.17949C7.40891 -5.57181 8.06599 -5.8426 8.7638 -5.97405C9.46162 -6.10551 10.1843 -6.09464 10.8844 -5.94217L21.9362 -3.60221C22.9219 -3.39065 23.8251 -2.90565 24.5298 -2.2096C25.2346 -1.51355 25.7085 -0.638272 25.8907 0.303646L27.1366 6.72717C27.3236 7.65365 27.2198 8.60544 26.8382 9.46367C26.4567 10.3219 25.8143 11.0485 24.9912 11.5527L18.8416 15.3048C18.8416 15.3048 17.8017 34.7823 37.1234 41.31Z" fill="#C6431F"/>
</svg>
